<svg xmlns="http://www.w3.org/2000/svg" width="900" viewBox="0 0 900 300" height="300" version="1.0"><defs><clipPath id="a"><path d="M 797.898438 60.429688 L 842.148438 60.429688 L 842.148438 84.429688 L 797.898438 84.429688 Z M 797.898438 60.429688"/></clipPath><clipPath id="b"><path d="M 648.691406 222.945312 L 689.941406 222.945312 L 689.941406 244.695312 L 648.691406 244.695312 Z M 648.691406 222.945312"/></clipPath><clipPath id="c"><path d="M 779.726562 176.671875 L 841.976562 176.671875 L 841.976562 196.921875 L 779.726562 196.921875 Z M 779.726562 176.671875"/></clipPath><clipPath id="d"><path d="M 53.132812 166.3125 L 73.382812 166.3125 L 73.382812 228.5625 L 53.132812 228.5625 Z M 53.132812 166.3125"/></clipPath></defs><path fill="#FFF" d="M-90 -30H990V330H-90z"/><path fill="#FFF" d="M-90 -30H990V330H-90z"/><path d="M-90 -30H990V330H-90z"/><g clip-path="url(#a)"><path fill="#FFF" d="M 797.898438 60.445312 L 797.898438 66.675781 L 805.34375 72.429688 L 797.898438 78.179688 L 797.898438 84.410156 L 813.417969 72.429688 Z M 798.210938 78.324219 L 805.847656 72.429688 L 798.210938 66.507812 L 798.210938 61.070312 L 812.914062 72.40625 L 798.210938 83.761719 Z M 812.265625 60.445312 L 812.265625 66.675781 L 819.710938 72.429688 L 812.265625 78.179688 L 812.265625 84.410156 L 827.78125 72.429688 Z M 812.574219 78.324219 L 820.214844 72.429688 L 812.574219 66.507812 L 812.574219 61.070312 L 827.277344 72.40625 L 812.574219 83.761719 Z M 826.628906 60.445312 L 826.628906 66.675781 L 834.078125 72.429688 L 826.628906 78.179688 L 826.628906 84.410156 L 842.148438 72.429688 Z M 826.941406 78.324219 L 834.582031 72.429688 L 826.941406 66.535156 L 826.941406 61.070312 L 841.644531 72.40625 L 826.941406 83.738281 Z M 826.941406 78.324219"/></g><g clip-path="url(#b)"><path fill="#FFF" d="M 648.816406 222.945312 L 648.816406 228.398438 L 655.871094 233.828125 L 648.816406 239.238281 L 648.816406 244.695312 L 662.949219 233.808594 Z M 662.25 222.945312 L 662.25 228.398438 L 669.304688 233.828125 L 662.25 239.238281 L 662.25 244.695312 L 676.382812 233.808594 Z M 675.6875 222.945312 L 675.6875 228.398438 L 682.742188 233.828125 L 675.6875 239.238281 L 675.6875 244.695312 L 689.816406 233.808594 Z M 675.6875 222.945312"/></g><g clip-path="url(#c)"><path fill="#FF914D" d="M 780.914062 138.410156 C 780.265625 138.410156 779.726562 138.953125 779.726562 139.605469 C 779.726562 140.261719 780.265625 140.804688 780.914062 140.804688 C 781.566406 140.804688 782.105469 140.261719 782.105469 139.605469 C 782.105469 138.953125 781.589844 138.410156 780.914062 138.410156 Z M 795.886719 138.386719 C 795.238281 138.386719 794.699219 138.929688 794.699219 139.585938 C 794.699219 140.238281 795.238281 140.78125 795.886719 140.78125 C 796.539062 140.78125 797.078125 140.238281 797.078125 139.585938 C 797.078125 138.929688 796.539062 138.386719 795.886719 138.386719 Z M 810.839844 138.386719 C 810.1875 138.386719 809.648438 138.929688 809.648438 139.585938 C 809.648438 140.238281 810.1875 140.78125 810.839844 140.78125 C 811.488281 140.78125 812.027344 140.238281 812.027344 139.585938 C 812.027344 138.929688 811.511719 138.386719 810.839844 138.386719 Z M 825.8125 138.386719 C 825.160156 138.386719 824.621094 138.929688 824.621094 139.585938 C 824.621094 140.238281 825.160156 140.78125 825.8125 140.78125 C 826.464844 140.78125 827.003906 140.238281 827.003906 139.585938 C 827.003906 138.929688 826.464844 138.386719 825.8125 138.386719 Z M 840.761719 140.804688 C 841.414062 140.804688 841.953125 140.261719 841.953125 139.605469 C 841.953125 138.953125 841.414062 138.410156 840.761719 138.410156 C 840.113281 138.410156 839.574219 138.953125 839.574219 139.605469 C 839.574219 140.261719 840.113281 140.804688 840.761719 140.804688 Z M 780.914062 152.273438 C 780.265625 152.273438 779.726562 152.816406 779.726562 153.472656 C 779.726562 154.125 780.265625 154.667969 780.914062 154.667969 C 781.566406 154.667969 782.105469 154.125 782.105469 153.472656 C 782.128906 152.816406 781.589844 152.273438 780.914062 152.273438 Z M 795.886719 152.273438 C 795.238281 152.273438 794.699219 152.816406 794.699219 153.472656 C 794.699219 154.125 795.238281 154.667969 795.886719 154.667969 C 796.539062 154.667969 797.078125 154.125 797.078125 153.472656 C 797.078125 152.816406 796.539062 152.273438 795.886719 152.273438 Z M 810.839844 152.273438 C 810.1875 152.273438 809.648438 152.816406 809.648438 153.472656 C 809.648438 154.125 810.1875 154.667969 810.839844 154.667969 C 811.488281 154.667969 812.027344 154.125 812.027344 153.472656 C 812.050781 152.816406 811.511719 152.273438 810.839844 152.273438 Z M 825.8125 152.273438 C 825.160156 152.273438 824.621094 152.816406 824.621094 153.472656 C 824.621094 154.125 825.160156 154.667969 825.8125 154.667969 C 826.464844 154.667969 827.003906 154.125 827.003906 153.472656 C 827.003906 152.816406 826.484375 152.273438 825.8125 152.273438 Z M 840.785156 152.273438 C 840.132812 152.273438 839.597656 152.816406 839.597656 153.472656 C 839.597656 154.125 840.132812 154.667969 840.785156 154.667969 C 841.4375 154.667969 841.976562 154.125 841.976562 153.472656 C 841.976562 152.816406 841.4375 152.273438 840.785156 152.273438 Z M 780.914062 166.570312 C 780.265625 166.570312 779.726562 167.113281 779.726562 167.765625 C 779.726562 168.421875 780.265625 168.964844 780.914062 168.964844 C 781.566406 168.964844 782.105469 168.421875 782.105469 167.765625 C 782.128906 167.113281 781.589844 166.570312 780.914062 166.570312 Z M 795.886719 166.570312 C 795.238281 166.570312 794.699219 167.113281 794.699219 167.765625 C 794.699219 168.421875 795.238281 168.964844 795.886719 168.964844 C 796.539062 168.964844 797.078125 168.421875 797.078125 167.765625 C 797.078125 167.113281 796.539062 166.570312 795.886719 166.570312 Z M 810.863281 166.570312 C 810.210938 166.570312 809.671875 167.113281 809.671875 167.765625 C 809.671875 168.421875 810.210938 168.964844 810.863281 168.964844 C 811.511719 168.964844 812.050781 168.421875 812.050781 167.765625 C 812.050781 167.113281 811.511719 166.570312 810.863281 166.570312 Z M 825.8125 166.570312 C 825.160156 166.570312 824.621094 167.113281 824.621094 167.765625 C 824.621094 168.421875 825.160156 168.964844 825.8125 168.964844 C 826.464844 168.964844 827.003906 168.421875 827.003906 167.765625 C 827.003906 167.113281 826.484375 166.570312 825.8125 166.570312 Z M 840.785156 166.570312 C 840.132812 166.570312 839.597656 167.113281 839.597656 167.765625 C 839.597656 168.421875 840.132812 168.964844 840.785156 168.964844 C 841.4375 168.964844 841.976562 168.421875 841.976562 167.765625 C 841.976562 167.113281 841.4375 166.570312 840.785156 166.570312 Z M 780.9375 180.457031 C 780.285156 180.457031 779.746094 181 779.746094 181.65625 C 779.746094 182.308594 780.285156 182.851562 780.9375 182.851562 C 781.589844 182.851562 782.128906 182.308594 782.128906 181.65625 C 782.128906 181 781.589844 180.457031 780.9375 180.457031 Z M 795.886719 180.457031 C 795.238281 180.457031 794.699219 181 794.699219 181.65625 C 794.699219 182.308594 795.238281 182.851562 795.886719 182.851562 C 796.539062 182.851562 797.078125 182.308594 797.078125 181.65625 C 797.078125 181 796.5625 180.457031 795.886719 180.457031 Z M 810.863281 180.457031 C 810.210938 180.457031 809.671875 181 809.671875 181.65625 C 809.671875 182.308594 810.210938 182.851562 810.863281 182.851562 C 811.511719 182.851562 812.050781 182.308594 812.050781 181.65625 C 812.050781 181 811.511719 180.457031 810.863281 180.457031 Z M 825.8125 180.457031 C 825.160156 180.457031 824.621094 181 824.621094 181.65625 C 824.621094 182.308594 825.160156 182.851562 825.8125 182.851562 C 826.464844 182.851562 827.003906 182.308594 827.003906 181.65625 C 827.023438 181 826.484375 180.457031 825.8125 180.457031 Z M 840.785156 180.457031 C 840.132812 180.457031 839.597656 181 839.597656 181.65625 C 839.597656 182.308594 840.132812 182.851562 840.785156 182.851562 C 841.4375 182.851562 841.976562 182.308594 841.976562 181.65625 C 841.976562 181 841.4375 180.457031 840.785156 180.457031 Z M 780.9375 195.160156 C 780.285156 195.160156 779.746094 195.699219 779.746094 196.355469 C 779.746094 197.011719 780.285156 197.550781 780.9375 197.550781 C 781.589844 197.550781 782.128906 197.011719 782.128906 196.355469 C 782.128906 195.699219 781.589844 195.160156 780.9375 195.160156 Z M 795.886719 195.160156 C 795.238281 195.160156 794.699219 195.699219 794.699219 196.355469 C 794.699219 197.011719 795.238281 197.550781 795.886719 197.550781 C 796.539062 197.550781 797.078125 197.011719 797.078125 196.355469 C 797.101562 195.699219 796.5625 195.160156 795.886719 195.160156 Z M 810.863281 195.160156 C 810.210938 195.160156 809.671875 195.699219 809.671875 196.355469 C 809.671875 197.011719 810.210938 197.550781 810.863281 197.550781 C 811.511719 197.550781 812.050781 197.011719 812.050781 196.355469 C 812.050781 195.699219 811.511719 195.160156 810.863281 195.160156 Z M 825.8125 195.160156 C 825.160156 195.160156 824.621094 195.699219 824.621094 196.355469 C 824.621094 197.011719 825.160156 197.550781 825.8125 197.550781 C 826.464844 197.550781 827.003906 197.011719 827.003906 196.355469 C 827.023438 195.699219 826.484375 195.160156 825.8125 195.160156 Z M 840.785156 195.160156 C 840.132812 195.160156 839.597656 195.699219 839.597656 196.355469 C 839.597656 197.011719 840.132812 197.550781 840.785156 197.550781 C 841.4375 197.550781 841.976562 197.011719 841.976562 196.355469 C 841.976562 195.699219 841.4375 195.160156 840.785156 195.160156 Z M 840.785156 195.160156"/></g><g clip-path="url(#d)"><path fill="#FF914D" d="M 111.429688 167.5 C 111.429688 166.851562 110.894531 166.3125 110.25 166.3125 C 109.601562 166.3125 109.066406 166.851562 109.066406 167.5 C 109.066406 168.152344 109.601562 168.691406 110.25 168.691406 C 110.894531 168.691406 111.429688 168.175781 111.429688 167.5 Z M 111.453125 182.472656 C 111.453125 181.824219 110.917969 181.285156 110.269531 181.285156 C 109.625 181.285156 109.089844 181.824219 109.089844 182.472656 C 109.089844 183.125 109.625 183.664062 110.269531 183.664062 C 110.917969 183.664062 111.453125 183.125 111.453125 182.472656 Z M 111.453125 197.425781 C 111.453125 196.773438 110.917969 196.234375 110.269531 196.234375 C 109.625 196.234375 109.089844 196.773438 109.089844 197.425781 C 109.089844 198.074219 109.625 198.613281 110.269531 198.613281 C 110.917969 198.613281 111.453125 198.097656 111.453125 197.425781 Z M 111.453125 212.398438 C 111.453125 211.746094 110.917969 211.207031 110.269531 211.207031 C 109.625 211.207031 109.089844 211.746094 109.089844 212.398438 C 109.089844 213.050781 109.625 213.589844 110.269531 213.589844 C 110.917969 213.589844 111.453125 213.050781 111.453125 212.398438 Z M 109.066406 227.347656 C 109.066406 228 109.601562 228.539062 110.25 228.539062 C 110.894531 228.539062 111.429688 228 111.429688 227.347656 C 111.429688 226.699219 110.894531 226.160156 110.25 226.160156 C 109.601562 226.160156 109.066406 226.699219 109.066406 227.347656 Z M 97.742188 167.5 C 97.742188 166.851562 97.207031 166.3125 96.558594 166.3125 C 95.914062 166.3125 95.378906 166.851562 95.378906 167.5 C 95.378906 168.152344 95.914062 168.691406 96.558594 168.691406 C 97.207031 168.714844 97.742188 168.175781 97.742188 167.5 Z M 97.742188 182.472656 C 97.742188 181.824219 97.207031 181.285156 96.558594 181.285156 C 95.914062 181.285156 95.378906 181.824219 95.378906 182.472656 C 95.378906 183.125 95.914062 183.664062 96.558594 183.664062 C 97.207031 183.664062 97.742188 183.125 97.742188 182.472656 Z M 97.742188 197.425781 C 97.742188 196.773438 97.207031 196.234375 96.558594 196.234375 C 95.914062 196.234375 95.378906 196.773438 95.378906 197.425781 C 95.378906 198.074219 95.914062 198.613281 96.558594 198.613281 C 97.207031 198.636719 97.742188 198.097656 97.742188 197.425781 Z M 97.742188 212.398438 C 97.742188 211.746094 97.207031 211.207031 96.558594 211.207031 C 95.914062 211.207031 95.378906 211.746094 95.378906 212.398438 C 95.378906 213.050781 95.914062 213.589844 96.558594 213.589844 C 97.207031 213.589844 97.742188 213.070312 97.742188 212.398438 Z M 97.742188 227.371094 C 97.742188 226.71875 97.207031 226.183594 96.558594 226.183594 C 95.914062 226.183594 95.378906 226.71875 95.378906 227.371094 C 95.378906 228.023438 95.914062 228.5625 96.558594 228.5625 C 97.207031 228.5625 97.742188 228.023438 97.742188 227.371094 Z M 83.628906 167.5 C 83.628906 166.851562 83.09375 166.3125 82.445312 166.3125 C 81.800781 166.3125 81.265625 166.851562 81.265625 167.5 C 81.265625 168.152344 81.800781 168.691406 82.445312 168.691406 C 83.09375 168.714844 83.628906 168.175781 83.628906 167.5 Z M 83.628906 182.472656 C 83.628906 181.824219 83.09375 181.285156 82.445312 181.285156 C 81.800781 181.285156 81.265625 181.824219 81.265625 182.472656 C 81.265625 183.125 81.800781 183.664062 82.445312 183.664062 C 83.09375 183.664062 83.628906 183.125 83.628906 182.472656 Z M 83.628906 197.449219 C 83.628906 196.796875 83.09375 196.257812 82.445312 196.257812 C 81.800781 196.257812 81.265625 196.796875 81.265625 197.449219 C 81.265625 198.097656 81.800781 198.636719 82.445312 198.636719 C 83.09375 198.636719 83.628906 198.097656 83.628906 197.449219 Z M 83.628906 212.398438 C 83.628906 211.746094 83.09375 211.207031 82.445312 211.207031 C 81.800781 211.207031 81.265625 211.746094 81.265625 212.398438 C 81.265625 213.050781 81.800781 213.589844 82.445312 213.589844 C 83.09375 213.589844 83.628906 213.070312 83.628906 212.398438 Z M 83.628906 227.371094 C 83.628906 226.71875 83.09375 226.183594 82.445312 226.183594 C 81.800781 226.183594 81.265625 226.71875 81.265625 227.371094 C 81.265625 228.023438 81.800781 228.5625 82.445312 228.5625 C 83.09375 228.5625 83.628906 228.023438 83.628906 227.371094 Z M 69.917969 167.523438 C 69.917969 166.871094 69.382812 166.332031 68.734375 166.332031 C 68.089844 166.332031 67.554688 166.871094 67.554688 167.523438 C 67.554688 168.175781 68.089844 168.714844 68.734375 168.714844 C 69.382812 168.714844 69.917969 168.175781 69.917969 167.523438 Z M 69.917969 182.472656 C 69.917969 181.824219 69.382812 181.285156 68.734375 181.285156 C 68.089844 181.285156 67.554688 181.824219 67.554688 182.472656 C 67.554688 183.125 68.089844 183.664062 68.734375 183.664062 C 69.382812 183.664062 69.917969 183.148438 69.917969 182.472656 Z M 69.917969 197.449219 C 69.917969 196.796875 69.382812 196.257812 68.734375 196.257812 C 68.089844 196.257812 67.554688 196.796875 67.554688 197.449219 C 67.554688 198.097656 68.089844 198.636719 68.734375 198.636719 C 69.382812 198.636719 69.917969 198.097656 69.917969 197.449219 Z M 69.917969 212.398438 C 69.917969 211.746094 69.382812 211.207031 68.734375 211.207031 C 68.089844 211.207031 67.554688 211.746094 67.554688 212.398438 C 67.554688 213.050781 68.089844 213.589844 68.734375 213.589844 C 69.382812 213.609375 69.917969 213.070312 69.917969 212.398438 Z M 69.917969 227.371094 C 69.917969 226.71875 69.382812 226.183594 68.734375 226.183594 C 68.089844 226.183594 67.554688 226.71875 67.554688 227.371094 C 67.554688 228.023438 68.089844 228.5625 68.734375 228.5625 C 69.382812 228.5625 69.917969 228.023438 69.917969 227.371094 Z M 55.402344 167.523438 C 55.402344 166.871094 54.867188 166.332031 54.222656 166.332031 C 53.574219 166.332031 53.039062 166.871094 53.039062 167.523438 C 53.039062 168.175781 53.574219 168.714844 54.222656 168.714844 C 54.867188 168.714844 55.402344 168.175781 55.402344 167.523438 Z M 55.402344 182.472656 C 55.402344 181.824219 54.867188 181.285156 54.222656 181.285156 C 53.574219 181.285156 53.039062 181.824219 53.039062 182.472656 C 53.039062 183.125 53.574219 183.664062 54.222656 183.664062 C 54.867188 183.6875 55.402344 183.148438 55.402344 182.472656 Z M 55.402344 197.449219 C 55.402344 196.796875 54.867188 196.257812 54.222656 196.257812 C 53.574219 196.257812 53.039062 196.796875 53.039062 197.449219 C 53.039062 198.097656 53.574219 198.636719 54.222656 198.636719 C 54.867188 198.636719 55.402344 198.097656 55.402344 197.449219 Z M 55.402344 212.398438 C 55.402344 211.746094 54.867188 211.207031 54.222656 211.207031 C 53.574219 211.207031 53.039062 211.746094 53.039062 212.398438 C 53.039062 213.050781 53.574219 213.589844 54.222656 213.589844 C 54.867188 213.609375 55.402344 213.070312 55.402344 212.398438 Z M 55.402344 227.371094 C 55.402344 226.71875 54.867188 226.183594 54.222656 226.183594 C 53.574219 226.183594 53.039062 226.71875 53.039062 227.371094 C 53.039062 228.023438 53.574219 228.5625 54.222656 228.5625 C 54.867188 228.5625 55.402344 228.023438 55.402344 227.371094 Z M 55.402344 227.371094"/></g><g fill="#FF914D"><g><g><path d="M 10.6875 0.46875 C 7.675781 0.46875 5.4375 -0.328125 3.96875 -1.921875 C 2.507812 -3.515625 1.726562 -6.046875 1.625 -9.515625 L 7.578125 -10.40625 C 7.597656 -8.414062 7.832031 -6.984375 8.28125 -6.109375 C 8.738281 -5.242188 9.421875 -4.8125 10.328125 -4.8125 C 11.492188 -4.8125 12.078125 -5.578125 12.078125 -7.109375 C 12.078125 -8.328125 11.796875 -9.375 11.234375 -10.25 C 10.679688 -11.132812 9.8125 -12.082031 8.625 -13.09375 L 5.90625 -15.453125 C 4.5625 -16.597656 3.519531 -17.8125 2.78125 -19.09375 C 2.039062 -20.375 1.671875 -21.894531 1.671875 -23.65625 C 1.671875 -26.300781 2.453125 -28.332031 4.015625 -29.75 C 5.585938 -31.175781 7.742188 -31.890625 10.484375 -31.890625 C 13.460938 -31.890625 15.488281 -31.019531 16.5625 -29.28125 C 17.632812 -27.550781 18.210938 -25.441406 18.296875 -22.953125 L 12.3125 -22.21875 C 12.257812 -23.851562 12.109375 -25.023438 11.859375 -25.734375 C 11.617188 -26.441406 11.082031 -26.796875 10.25 -26.796875 C 9.65625 -26.796875 9.195312 -26.539062 8.875 -26.03125 C 8.550781 -25.53125 8.390625 -24.972656 8.390625 -24.359375 C 8.390625 -23.296875 8.628906 -22.398438 9.109375 -21.671875 C 9.585938 -20.953125 10.359375 -20.125 11.421875 -19.1875 L 14.015625 -16.890625 C 15.578125 -15.578125 16.785156 -14.179688 17.640625 -12.703125 C 18.492188 -11.222656 18.921875 -9.472656 18.921875 -7.453125 C 18.921875 -5.984375 18.578125 -4.644531 17.890625 -3.4375 C 17.203125 -2.226562 16.234375 -1.273438 14.984375 -0.578125 C 13.742188 0.117188 12.3125 0.46875 10.6875 0.46875 Z M 10.6875 0.46875" transform="translate(355.249 183.79)"/></g></g></g><g fill="#FF914D"><g><g><path d="M 2.328125 -31.46875 L 9.28125 -31.46875 L 9.28125 -18.609375 L 14.5625 -31.46875 L 21.359375 -31.46875 L 15.53125 -17.25 L 21.640625 0 L 14.5625 0 L 10.015625 -13.90625 L 9.28125 -12.65625 L 9.28125 0 L 2.328125 0 Z M 2.328125 -31.46875" transform="translate(375.215 183.79)"/></g></g></g><g fill="#FF914D"><g><g><path d="M 2.375 -31.46875 L 9.328125 -31.46875 L 9.328125 0 L 2.375 0 Z M 2.375 -31.46875" transform="translate(397.24 183.79)"/></g></g></g><g fill="#FF914D"><g><g><path d="M 2.328125 -31.46875 L 9.28125 -31.46875 L 9.28125 -4.703125 L 16.515625 -4.703125 L 16.515625 0 L 2.328125 0 Z M 2.328125 -31.46875" transform="translate(408.933 183.79)"/></g></g></g><g fill="#FF914D"><g><g><path d="M 2.328125 -31.46875 L 9.28125 -31.46875 L 9.28125 -4.703125 L 16.515625 -4.703125 L 16.515625 0 L 2.328125 0 Z M 2.328125 -31.46875" transform="translate(426.141 183.79)"/></g></g></g><g fill="#FF914D"><g><g><path d="M 10.6875 0.46875 C 7.675781 0.46875 5.4375 -0.328125 3.96875 -1.921875 C 2.507812 -3.515625 1.726562 -6.046875 1.625 -9.515625 L 7.578125 -10.40625 C 7.597656 -8.414062 7.832031 -6.984375 8.28125 -6.109375 C 8.738281 -5.242188 9.421875 -4.8125 10.328125 -4.8125 C 11.492188 -4.8125 12.078125 -5.578125 12.078125 -7.109375 C 12.078125 -8.328125 11.796875 -9.375 11.234375 -10.25 C 10.679688 -11.132812 9.8125 -12.082031 8.625 -13.09375 L 5.90625 -15.453125 C 4.5625 -16.597656 3.519531 -17.8125 2.78125 -19.09375 C 2.039062 -20.375 1.671875 -21.894531 1.671875 -23.65625 C 1.671875 -26.300781 2.453125 -28.332031 4.015625 -29.75 C 5.585938 -31.175781 7.742188 -31.890625 10.484375 -31.890625 C 13.460938 -31.890625 15.488281 -31.019531 16.5625 -29.28125 C 17.632812 -27.550781 18.210938 -25.441406 18.296875 -22.953125 L 12.3125 -22.21875 C 12.257812 -23.851562 12.109375 -25.023438 11.859375 -25.734375 C 11.617188 -26.441406 11.082031 -26.796875 10.25 -26.796875 C 9.65625 -26.796875 9.195312 -26.539062 8.875 -26.03125 C 8.550781 -25.53125 8.390625 -24.972656 8.390625 -24.359375 C 8.390625 -23.296875 8.628906 -22.398438 9.109375 -21.671875 C 9.585938 -20.953125 10.359375 -20.125 11.421875 -19.1875 L 14.015625 -16.890625 C 15.578125 -15.578125 16.785156 -14.179688 17.640625 -12.703125 C 18.492188 -11.222656 18.921875 -9.472656 18.921875 -7.453125 C 18.921875 -5.984375 18.578125 -4.644531 17.890625 -3.4375 C 17.203125 -2.226562 16.234375 -1.273438 14.984375 -0.578125 C 13.742188 0.117188 12.3125 0.46875 10.6875 0.46875 Z M 10.6875 0.46875" transform="translate(443.35 183.79)"/></g></g></g><g fill="#D9D9D9"><g><g><path d="M 14.75 -7.15625 C 14.75 -4.789062 14.160156 -2.972656 12.984375 -1.703125 C 11.816406 -0.429688 10.140625 0.203125 7.953125 0.203125 C 5.765625 0.203125 4.082031 -0.429688 2.90625 -1.703125 C 1.738281 -2.972656 1.15625 -4.796875 1.15625 -7.171875 C 1.15625 -9.554688 1.742188 -11.375 2.921875 -12.625 C 4.097656 -13.875 5.785156 -14.5 7.984375 -14.5 C 10.171875 -14.5 11.84375 -13.867188 13 -12.609375 C 14.164062 -11.347656 14.75 -9.53125 14.75 -7.15625 Z M 4.34375 -7.15625 C 4.34375 -5.5625 4.644531 -4.359375 5.25 -3.546875 C 5.851562 -2.742188 6.753906 -2.34375 7.953125 -2.34375 C 10.367188 -2.34375 11.578125 -3.945312 11.578125 -7.15625 C 11.578125 -10.375 10.378906 -11.984375 7.984375 -11.984375 C 6.773438 -11.984375 5.863281 -11.578125 5.25 -10.765625 C 4.644531 -9.953125 4.34375 -8.75 4.34375 -7.15625 Z M 4.34375 -7.15625" transform="translate(26.55 105.622)"/></g></g></g><g fill="#D9D9D9"><g><g><path d="M 7.5625 0.203125 C 6.28125 0.203125 5.273438 -0.265625 4.546875 -1.203125 L 4.390625 -1.203125 C 4.492188 -0.285156 4.546875 0.238281 4.546875 0.375 L 4.546875 4.8125 L 1.5625 4.8125 L 1.5625 -10.921875 L 3.984375 -10.921875 L 4.40625 -9.5 L 4.546875 -9.5 C 5.242188 -10.582031 6.273438 -11.125 7.640625 -11.125 C 8.929688 -11.125 9.941406 -10.625 10.671875 -9.625 C 11.398438 -8.632812 11.765625 -7.253906 11.765625 -5.484375 C 11.765625 -4.316406 11.59375 -3.300781 11.25 -2.4375 C 10.90625 -1.582031 10.414062 -0.925781 9.78125 -0.46875 C 9.15625 -0.0195312 8.414062 0.203125 7.5625 0.203125 Z M 6.6875 -8.734375 C 5.945312 -8.734375 5.40625 -8.507812 5.0625 -8.0625 C 4.726562 -7.613281 4.554688 -6.867188 4.546875 -5.828125 L 4.546875 -5.5 C 4.546875 -4.320312 4.71875 -3.476562 5.0625 -2.96875 C 5.414062 -2.46875 5.96875 -2.21875 6.71875 -2.21875 C 8.050781 -2.21875 8.71875 -3.316406 8.71875 -5.515625 C 8.71875 -6.585938 8.550781 -7.390625 8.21875 -7.921875 C 7.894531 -8.460938 7.382812 -8.734375 6.6875 -8.734375 Z M 6.6875 -8.734375" transform="translate(42.462 105.622)"/></g></g></g><g fill="#D9D9D9"><g><g><path d="M 6.078125 -9 C 5.453125 -9 4.957031 -8.796875 4.59375 -8.390625 C 4.238281 -7.992188 4.035156 -7.429688 3.984375 -6.703125 L 8.171875 -6.703125 C 8.148438 -7.429688 7.953125 -7.992188 7.578125 -8.390625 C 7.210938 -8.796875 6.710938 -9 6.078125 -9 Z M 6.5 0.203125 C 4.75 0.203125 3.378906 -0.28125 2.390625 -1.25 C 1.398438 -2.226562 0.90625 -3.601562 0.90625 -5.375 C 0.90625 -7.207031 1.359375 -8.625 2.265625 -9.625 C 3.179688 -10.625 4.445312 -11.125 6.0625 -11.125 C 7.601562 -11.125 8.800781 -10.679688 9.65625 -9.796875 C 10.519531 -8.921875 10.953125 -7.707031 10.953125 -6.15625 L 10.953125 -4.71875 L 3.921875 -4.71875 C 3.953125 -3.875 4.203125 -3.210938 4.671875 -2.734375 C 5.140625 -2.253906 5.796875 -2.015625 6.640625 -2.015625 C 7.296875 -2.015625 7.914062 -2.082031 8.5 -2.21875 C 9.09375 -2.363281 9.707031 -2.582031 10.34375 -2.875 L 10.34375 -0.578125 C 9.820312 -0.316406 9.265625 -0.125 8.671875 0 C 8.078125 0.132812 7.351562 0.203125 6.5 0.203125 Z M 6.5 0.203125" transform="translate(55.113 105.622)"/></g></g></g><g fill="#D9D9D9"><g><g><path d="M 11.640625 0 L 8.65625 0 L 8.65625 -6.375 C 8.65625 -7.164062 8.515625 -7.753906 8.234375 -8.140625 C 7.960938 -8.535156 7.519531 -8.734375 6.90625 -8.734375 C 6.070312 -8.734375 5.46875 -8.457031 5.09375 -7.90625 C 4.726562 -7.351562 4.546875 -6.429688 4.546875 -5.140625 L 4.546875 0 L 1.5625 0 L 1.5625 -10.921875 L 3.84375 -10.921875 L 4.234375 -9.515625 L 4.40625 -9.515625 C 4.738281 -10.046875 5.195312 -10.445312 5.78125 -10.71875 C 6.363281 -10.988281 7.023438 -11.125 7.765625 -11.125 C 9.035156 -11.125 10 -10.78125 10.65625 -10.09375 C 11.3125 -9.40625 11.640625 -8.414062 11.640625 -7.125 Z M 11.640625 0" transform="translate(66.925 105.622)"/></g></g></g><g fill="#D9D9D9"><g><g><path d="M 7.859375 -11.96875 C 6.722656 -11.96875 5.84375 -11.535156 5.21875 -10.671875 C 4.59375 -9.816406 4.28125 -8.625 4.28125 -7.09375 C 4.28125 -3.914062 5.472656 -2.328125 7.859375 -2.328125 C 8.859375 -2.328125 10.070312 -2.578125 11.5 -3.078125 L 11.5 -0.53125 C 10.332031 -0.0390625 9.023438 0.203125 7.578125 0.203125 C 5.503906 0.203125 3.914062 -0.425781 2.8125 -1.6875 C 1.707031 -2.945312 1.15625 -4.757812 1.15625 -7.125 C 1.15625 -8.601562 1.425781 -9.898438 1.96875 -11.015625 C 2.507812 -12.140625 3.285156 -13 4.296875 -13.59375 C 5.316406 -14.1875 6.503906 -14.484375 7.859375 -14.484375 C 9.242188 -14.484375 10.640625 -14.148438 12.046875 -13.484375 L 11.0625 -11.015625 C 10.53125 -11.265625 9.992188 -11.484375 9.453125 -11.671875 C 8.910156 -11.867188 8.378906 -11.96875 7.859375 -11.96875 Z M 7.859375 -11.96875" transform="translate(80.064 105.622)"/></g></g></g><g fill="#D9D9D9"><g><g><path d="M 9.9375 -14.28125 L 13 -14.28125 L 8.140625 0 L 4.84375 0 L 0 -14.28125 L 3.0625 -14.28125 L 5.75 -5.78125 C 5.894531 -5.28125 6.046875 -4.695312 6.203125 -4.03125 C 6.367188 -3.363281 6.46875 -2.898438 6.5 -2.640625 C 6.570312 -3.234375 6.816406 -4.28125 7.234375 -5.78125 Z M 9.9375 -14.28125" transform="translate(92.803 105.622)"/></g></g></g><g fill="#D9D9D9"><g><g><path d="M 10.53125 0 L 9.5 -3.40625 L 4.296875 -3.40625 L 3.265625 0 L 0 0 L 5.046875 -14.34375 L 8.734375 -14.34375 L 13.796875 0 Z M 8.78125 -5.9375 C 7.820312 -9.019531 7.28125 -10.757812 7.15625 -11.15625 C 7.039062 -11.5625 6.957031 -11.882812 6.90625 -12.125 C 6.6875 -11.289062 6.070312 -9.226562 5.0625 -5.9375 Z M 8.78125 -5.9375" transform="translate(179.65 105.622)"/></g></g></g><g fill="#D9D9D9"><g><g><path d="M 7.65625 -11.125 C 8.0625 -11.125 8.394531 -11.09375 8.65625 -11.03125 L 8.4375 -8.25 C 8.195312 -8.3125 7.90625 -8.34375 7.5625 -8.34375 C 6.613281 -8.34375 5.875 -8.097656 5.34375 -7.609375 C 4.8125 -7.117188 4.546875 -6.4375 4.546875 -5.5625 L 4.546875 0 L 1.5625 0 L 1.5625 -10.921875 L 3.8125 -10.921875 L 4.265625 -9.078125 L 4.40625 -9.078125 C 4.738281 -9.691406 5.191406 -10.1875 5.765625 -10.5625 C 6.347656 -10.9375 6.976562 -11.125 7.65625 -11.125 Z M 7.65625 -11.125" transform="translate(193.444 105.622)"/></g></g></g><g fill="#D9D9D9"><g><g><path d="M 5.015625 0.203125 C 3.734375 0.203125 2.726562 -0.296875 2 -1.296875 C 1.269531 -2.296875 0.90625 -3.675781 0.90625 -5.4375 C 0.90625 -7.226562 1.273438 -8.625 2.015625 -9.625 C 2.765625 -10.625 3.789062 -11.125 5.09375 -11.125 C 6.46875 -11.125 7.519531 -10.585938 8.25 -9.515625 L 8.34375 -9.515625 C 8.1875 -10.335938 8.109375 -11.066406 8.109375 -11.703125 L 8.109375 -15.203125 L 11.109375 -15.203125 L 11.109375 0 L 8.8125 0 L 8.25 -1.421875 L 8.109375 -1.421875 C 7.429688 -0.335938 6.398438 0.203125 5.015625 0.203125 Z M 6.0625 -2.171875 C 6.820312 -2.171875 7.378906 -2.390625 7.734375 -2.828125 C 8.085938 -3.273438 8.285156 -4.03125 8.328125 -5.09375 L 8.328125 -5.421875 C 8.328125 -6.585938 8.144531 -7.425781 7.78125 -7.9375 C 7.414062 -8.445312 6.828125 -8.703125 6.015625 -8.703125 C 5.347656 -8.703125 4.832031 -8.421875 4.46875 -7.859375 C 4.101562 -7.296875 3.921875 -6.476562 3.921875 -5.40625 C 3.921875 -4.332031 4.101562 -3.523438 4.46875 -2.984375 C 4.84375 -2.441406 5.375 -2.171875 6.0625 -2.171875 Z M 6.0625 -2.171875" transform="translate(202.523 105.622)"/></g></g></g><g fill="#D9D9D9"><g><g><path d="M 9.296875 0 L 8.890625 -1.390625 L 8.734375 -1.390625 C 8.421875 -0.890625 7.96875 -0.5 7.375 -0.21875 C 6.789062 0.0625 6.125 0.203125 5.375 0.203125 C 4.09375 0.203125 3.125 -0.140625 2.46875 -0.828125 C 1.820312 -1.515625 1.5 -2.503906 1.5 -3.796875 L 1.5 -10.921875 L 4.484375 -10.921875 L 4.484375 -4.546875 C 4.484375 -3.753906 4.625 -3.160156 4.90625 -2.765625 C 5.1875 -2.367188 5.628906 -2.171875 6.234375 -2.171875 C 7.066406 -2.171875 7.671875 -2.445312 8.046875 -3 C 8.421875 -3.5625 8.609375 -4.488281 8.609375 -5.78125 L 8.609375 -10.921875 L 11.578125 -10.921875 L 11.578125 0 Z M 9.296875 0" transform="translate(215.174 105.622)"/></g></g></g><g fill="#D9D9D9"><g><g><path d="M 1.4375 -13.734375 C 1.4375 -14.710938 1.976562 -15.203125 3.0625 -15.203125 C 4.132812 -15.203125 4.671875 -14.710938 4.671875 -13.734375 C 4.671875 -13.273438 4.535156 -12.914062 4.265625 -12.65625 C 4.003906 -12.40625 3.601562 -12.28125 3.0625 -12.28125 C 1.976562 -12.28125 1.4375 -12.765625 1.4375 -13.734375 Z M 4.546875 0 L 1.5625 0 L 1.5625 -10.921875 L 4.546875 -10.921875 Z M 4.546875 0" transform="translate(228.313 105.622)"/></g></g></g><g fill="#D9D9D9"><g><g><path d="M 11.640625 0 L 8.65625 0 L 8.65625 -6.375 C 8.65625 -7.164062 8.515625 -7.753906 8.234375 -8.140625 C 7.960938 -8.535156 7.519531 -8.734375 6.90625 -8.734375 C 6.070312 -8.734375 5.46875 -8.457031 5.09375 -7.90625 C 4.726562 -7.351562 4.546875 -6.429688 4.546875 -5.140625 L 4.546875 0 L 1.5625 0 L 1.5625 -10.921875 L 3.84375 -10.921875 L 4.234375 -9.515625 L 4.40625 -9.515625 C 4.738281 -10.046875 5.195312 -10.445312 5.78125 -10.71875 C 6.363281 -10.988281 7.023438 -11.125 7.765625 -11.125 C 9.035156 -11.125 10 -10.78125 10.65625 -10.09375 C 11.3125 -9.40625 11.640625 -8.414062 11.640625 -7.125 Z M 11.640625 0" transform="translate(234.415 105.622)"/></g></g></g><g fill="#D9D9D9"><g><g><path d="M 3.9375 -5.484375 C 3.9375 -4.398438 4.113281 -3.582031 4.46875 -3.03125 C 4.820312 -2.476562 5.398438 -2.203125 6.203125 -2.203125 C 6.992188 -2.203125 7.5625 -2.472656 7.90625 -3.015625 C 8.257812 -3.566406 8.4375 -4.390625 8.4375 -5.484375 C 8.4375 -6.554688 8.257812 -7.363281 7.90625 -7.90625 C 7.5625 -8.445312 6.988281 -8.71875 6.1875 -8.71875 C 5.382812 -8.71875 4.804688 -8.445312 4.453125 -7.90625 C 4.109375 -7.375 3.9375 -6.566406 3.9375 -5.484375 Z M 11.484375 -5.484375 C 11.484375 -3.703125 11.015625 -2.304688 10.078125 -1.296875 C 9.140625 -0.296875 7.832031 0.203125 6.15625 0.203125 C 5.113281 0.203125 4.191406 -0.0234375 3.390625 -0.484375 C 2.585938 -0.953125 1.972656 -1.613281 1.546875 -2.46875 C 1.117188 -3.332031 0.90625 -4.335938 0.90625 -5.484375 C 0.90625 -7.265625 1.367188 -8.648438 2.296875 -9.640625 C 3.222656 -10.628906 4.53125 -11.125 6.21875 -11.125 C 7.269531 -11.125 8.195312 -10.894531 9 -10.4375 C 9.800781 -9.976562 10.414062 -9.320312 10.84375 -8.46875 C 11.269531 -7.625 11.484375 -6.628906 11.484375 -5.484375 Z M 11.484375 -5.484375" transform="translate(247.554 105.622)"/></g></g></g><g fill="#D9D9D9"><g><g><path d="M 1.796875 0 L 1.796875 -14.28125 L 4.828125 -14.28125 L 4.828125 -2.5 L 10.609375 -2.5 L 10.609375 0 Z M 1.796875 0" transform="translate(339.437 105.622)"/></g></g></g><g fill="#D9D9D9"><g><g><path d="M 6.078125 -9 C 5.453125 -9 4.957031 -8.796875 4.59375 -8.390625 C 4.238281 -7.992188 4.035156 -7.429688 3.984375 -6.703125 L 8.171875 -6.703125 C 8.148438 -7.429688 7.953125 -7.992188 7.578125 -8.390625 C 7.210938 -8.796875 6.710938 -9 6.078125 -9 Z M 6.5 0.203125 C 4.75 0.203125 3.378906 -0.28125 2.390625 -1.25 C 1.398438 -2.226562 0.90625 -3.601562 0.90625 -5.375 C 0.90625 -7.207031 1.359375 -8.625 2.265625 -9.625 C 3.179688 -10.625 4.445312 -11.125 6.0625 -11.125 C 7.601562 -11.125 8.800781 -10.679688 9.65625 -9.796875 C 10.519531 -8.921875 10.953125 -7.707031 10.953125 -6.15625 L 10.953125 -4.71875 L 3.921875 -4.71875 C 3.953125 -3.875 4.203125 -3.210938 4.671875 -2.734375 C 5.140625 -2.253906 5.796875 -2.015625 6.640625 -2.015625 C 7.296875 -2.015625 7.914062 -2.082031 8.5 -2.21875 C 9.09375 -2.363281 9.707031 -2.582031 10.34375 -2.875 L 10.34375 -0.578125 C 9.820312 -0.316406 9.265625 -0.125 8.671875 0 C 8.078125 0.132812 7.351562 0.203125 6.5 0.203125 Z M 6.5 0.203125" transform="translate(350.731 105.622)"/></g></g></g><g fill="#D9D9D9"><g><g><path d="M 8.5 0 L 7.921875 -1.484375 L 7.84375 -1.484375 C 7.34375 -0.847656 6.828125 -0.40625 6.296875 -0.15625 C 5.765625 0.0820312 5.070312 0.203125 4.21875 0.203125 C 3.164062 0.203125 2.335938 -0.0976562 1.734375 -0.703125 C 1.140625 -1.304688 0.84375 -2.160156 0.84375 -3.265625 C 0.84375 -4.421875 1.242188 -5.273438 2.046875 -5.828125 C 2.859375 -6.378906 4.082031 -6.679688 5.71875 -6.734375 L 7.625 -6.796875 L 7.625 -7.28125 C 7.625 -8.382812 7.054688 -8.9375 5.921875 -8.9375 C 5.046875 -8.9375 4.019531 -8.671875 2.84375 -8.140625 L 1.859375 -10.15625 C 3.109375 -10.8125 4.5 -11.140625 6.03125 -11.140625 C 7.5 -11.140625 8.625 -10.820312 9.40625 -10.1875 C 10.1875 -9.550781 10.578125 -8.582031 10.578125 -7.28125 L 10.578125 0 Z M 7.625 -5.0625 L 6.46875 -5.015625 C 5.601562 -4.992188 4.957031 -4.835938 4.53125 -4.546875 C 4.101562 -4.265625 3.890625 -3.832031 3.890625 -3.25 C 3.890625 -2.40625 4.375 -1.984375 5.34375 -1.984375 C 6.03125 -1.984375 6.582031 -2.179688 7 -2.578125 C 7.414062 -2.972656 7.625 -3.5 7.625 -4.15625 Z M 7.625 -5.0625" transform="translate(362.543 105.622)"/></g></g></g><g fill="#D9D9D9"><g><g><path d="M 5.015625 0.203125 C 3.734375 0.203125 2.726562 -0.296875 2 -1.296875 C 1.269531 -2.296875 0.90625 -3.675781 0.90625 -5.4375 C 0.90625 -7.226562 1.273438 -8.625 2.015625 -9.625 C 2.765625 -10.625 3.789062 -11.125 5.09375 -11.125 C 6.46875 -11.125 7.519531 -10.585938 8.25 -9.515625 L 8.34375 -9.515625 C 8.1875 -10.335938 8.109375 -11.066406 8.109375 -11.703125 L 8.109375 -15.203125 L 11.109375 -15.203125 L 11.109375 0 L 8.8125 0 L 8.25 -1.421875 L 8.109375 -1.421875 C 7.429688 -0.335938 6.398438 0.203125 5.015625 0.203125 Z M 6.0625 -2.171875 C 6.820312 -2.171875 7.378906 -2.390625 7.734375 -2.828125 C 8.085938 -3.273438 8.285156 -4.03125 8.328125 -5.09375 L 8.328125 -5.421875 C 8.328125 -6.585938 8.144531 -7.425781 7.78125 -7.9375 C 7.414062 -8.445312 6.828125 -8.703125 6.015625 -8.703125 C 5.347656 -8.703125 4.832031 -8.421875 4.46875 -7.859375 C 4.101562 -7.296875 3.921875 -6.476562 3.921875 -5.40625 C 3.921875 -4.332031 4.101562 -3.523438 4.46875 -2.984375 C 4.84375 -2.441406 5.375 -2.171875 6.0625 -2.171875 Z M 6.0625 -2.171875" transform="translate(374.618 105.622)"/></g></g></g><g fill="#D9D9D9"><g><g><path d="M 6.078125 -9 C 5.453125 -9 4.957031 -8.796875 4.59375 -8.390625 C 4.238281 -7.992188 4.035156 -7.429688 3.984375 -6.703125 L 8.171875 -6.703125 C 8.148438 -7.429688 7.953125 -7.992188 7.578125 -8.390625 C 7.210938 -8.796875 6.710938 -9 6.078125 -9 Z M 6.5 0.203125 C 4.75 0.203125 3.378906 -0.28125 2.390625 -1.25 C 1.398438 -2.226562 0.90625 -3.601562 0.90625 -5.375 C 0.90625 -7.207031 1.359375 -8.625 2.265625 -9.625 C 3.179688 -10.625 4.445312 -11.125 6.0625 -11.125 C 7.601562 -11.125 8.800781 -10.679688 9.65625 -9.796875 C 10.519531 -8.921875 10.953125 -7.707031 10.953125 -6.15625 L 10.953125 -4.71875 L 3.921875 -4.71875 C 3.953125 -3.875 4.203125 -3.210938 4.671875 -2.734375 C 5.140625 -2.253906 5.796875 -2.015625 6.640625 -2.015625 C 7.296875 -2.015625 7.914062 -2.082031 8.5 -2.21875 C 9.09375 -2.363281 9.707031 -2.582031 10.34375 -2.875 L 10.34375 -0.578125 C 9.820312 -0.316406 9.265625 -0.125 8.671875 0 C 8.078125 0.132812 7.351562 0.203125 6.5 0.203125 Z M 6.5 0.203125" transform="translate(387.27 105.622)"/></g></g></g><g fill="#D9D9D9"><g><g><path d="M 7.65625 -11.125 C 8.0625 -11.125 8.394531 -11.09375 8.65625 -11.03125 L 8.4375 -8.25 C 8.195312 -8.3125 7.90625 -8.34375 7.5625 -8.34375 C 6.613281 -8.34375 5.875 -8.097656 5.34375 -7.609375 C 4.8125 -7.117188 4.546875 -6.4375 4.546875 -5.5625 L 4.546875 0 L 1.5625 0 L 1.5625 -10.921875 L 3.8125 -10.921875 L 4.265625 -9.078125 L 4.40625 -9.078125 C 4.738281 -9.691406 5.191406 -10.1875 5.765625 -10.5625 C 6.347656 -10.9375 6.976562 -11.125 7.65625 -11.125 Z M 7.65625 -11.125" transform="translate(399.082 105.622)"/></g></g></g><g fill="#D9D9D9"><g><g><path d="M 9.1875 -3.25 C 9.1875 -2.125 8.796875 -1.265625 8.015625 -0.671875 C 7.234375 -0.0859375 6.066406 0.203125 4.515625 0.203125 C 3.722656 0.203125 3.046875 0.144531 2.484375 0.03125 C 1.929688 -0.0703125 1.410156 -0.226562 0.921875 -0.4375 L 0.921875 -2.90625 C 1.472656 -2.644531 2.09375 -2.425781 2.78125 -2.25 C 3.476562 -2.070312 4.09375 -1.984375 4.625 -1.984375 C 5.695312 -1.984375 6.234375 -2.296875 6.234375 -2.921875 C 6.234375 -3.148438 6.160156 -3.335938 6.015625 -3.484375 C 5.878906 -3.640625 5.632812 -3.804688 5.28125 -3.984375 C 4.925781 -4.171875 4.457031 -4.390625 3.875 -4.640625 C 3.039062 -4.992188 2.425781 -5.316406 2.03125 -5.609375 C 1.632812 -5.910156 1.347656 -6.253906 1.171875 -6.640625 C 0.992188 -7.035156 0.90625 -7.515625 0.90625 -8.078125 C 0.90625 -9.046875 1.28125 -9.796875 2.03125 -10.328125 C 2.78125 -10.859375 3.84375 -11.125 5.21875 -11.125 C 6.539062 -11.125 7.820312 -10.835938 9.0625 -10.265625 L 8.171875 -8.109375 C 7.617188 -8.347656 7.101562 -8.539062 6.625 -8.6875 C 6.15625 -8.84375 5.671875 -8.921875 5.171875 -8.921875 C 4.296875 -8.921875 3.859375 -8.679688 3.859375 -8.203125 C 3.859375 -7.929688 4 -7.695312 4.28125 -7.5 C 4.5625 -7.3125 5.179688 -7.023438 6.140625 -6.640625 C 6.992188 -6.296875 7.617188 -5.972656 8.015625 -5.671875 C 8.410156 -5.367188 8.703125 -5.019531 8.890625 -4.625 C 9.085938 -4.238281 9.1875 -3.78125 9.1875 -3.25 Z M 9.1875 -3.25" transform="translate(408.16 105.622)"/></g></g></g><g fill="#D9D9D9"><g><g><path d="M 11.640625 0 L 8.65625 0 L 8.65625 -6.375 C 8.65625 -7.945312 8.070312 -8.734375 6.90625 -8.734375 C 6.070312 -8.734375 5.46875 -8.453125 5.09375 -7.890625 C 4.726562 -7.328125 4.546875 -6.410156 4.546875 -5.140625 L 4.546875 0 L 1.5625 0 L 1.5625 -15.203125 L 4.546875 -15.203125 L 4.546875 -12.09375 C 4.546875 -11.851562 4.519531 -11.289062 4.46875 -10.40625 L 4.40625 -9.515625 L 4.5625 -9.515625 C 5.226562 -10.585938 6.28125 -11.125 7.71875 -11.125 C 9.007812 -11.125 9.984375 -10.773438 10.640625 -10.078125 C 11.304688 -9.390625 11.640625 -8.40625 11.640625 -7.125 Z M 11.640625 0" transform="translate(418.098 105.622)"/></g></g></g><g fill="#D9D9D9"><g><g><path d="M 1.4375 -13.734375 C 1.4375 -14.710938 1.976562 -15.203125 3.0625 -15.203125 C 4.132812 -15.203125 4.671875 -14.710938 4.671875 -13.734375 C 4.671875 -13.273438 4.535156 -12.914062 4.265625 -12.65625 C 4.003906 -12.40625 3.601562 -12.28125 3.0625 -12.28125 C 1.976562 -12.28125 1.4375 -12.765625 1.4375 -13.734375 Z M 4.546875 0 L 1.5625 0 L 1.5625 -10.921875 L 4.546875 -10.921875 Z M 4.546875 0" transform="translate(431.237 105.622)"/></g></g></g><g fill="#D9D9D9"><g><g><path d="M 7.5625 0.203125 C 6.28125 0.203125 5.273438 -0.265625 4.546875 -1.203125 L 4.390625 -1.203125 C 4.492188 -0.285156 4.546875 0.238281 4.546875 0.375 L 4.546875 4.8125 L 1.5625 4.8125 L 1.5625 -10.921875 L 3.984375 -10.921875 L 4.40625 -9.5 L 4.546875 -9.5 C 5.242188 -10.582031 6.273438 -11.125 7.640625 -11.125 C 8.929688 -11.125 9.941406 -10.625 10.671875 -9.625 C 11.398438 -8.632812 11.765625 -7.253906 11.765625 -5.484375 C 11.765625 -4.316406 11.59375 -3.300781 11.25 -2.4375 C 10.90625 -1.582031 10.414062 -0.925781 9.78125 -0.46875 C 9.15625 -0.0195312 8.414062 0.203125 7.5625 0.203125 Z M 6.6875 -8.734375 C 5.945312 -8.734375 5.40625 -8.507812 5.0625 -8.0625 C 4.726562 -7.613281 4.554688 -6.867188 4.546875 -5.828125 L 4.546875 -5.5 C 4.546875 -4.320312 4.71875 -3.476562 5.0625 -2.96875 C 5.414062 -2.46875 5.96875 -2.21875 6.71875 -2.21875 C 8.050781 -2.21875 8.71875 -3.316406 8.71875 -5.515625 C 8.71875 -6.585938 8.550781 -7.390625 8.21875 -7.921875 C 7.894531 -8.460938 7.382812 -8.734375 6.6875 -8.734375 Z M 6.6875 -8.734375" transform="translate(437.338 105.622)"/></g></g></g><g fill="#D9D9D9"><g><g><path d="M 14.75 -7.15625 C 14.75 -5.476562 14.453125 -4.070312 13.859375 -2.9375 C 13.265625 -1.800781 12.390625 -0.96875 11.234375 -0.4375 L 14.671875 3.40625 L 10.796875 3.40625 L 8.1875 0.203125 L 7.953125 0.203125 C 5.765625 0.203125 4.082031 -0.429688 2.90625 -1.703125 C 1.738281 -2.972656 1.15625 -4.796875 1.15625 -7.171875 C 1.15625 -9.554688 1.742188 -11.375 2.921875 -12.625 C 4.097656 -13.875 5.785156 -14.5 7.984375 -14.5 C 10.171875 -14.5 11.84375 -13.867188 13 -12.609375 C 14.164062 -11.347656 14.75 -9.53125 14.75 -7.15625 Z M 4.34375 -7.15625 C 4.34375 -5.5625 4.644531 -4.359375 5.25 -3.546875 C 5.851562 -2.742188 6.753906 -2.34375 7.953125 -2.34375 C 10.367188 -2.34375 11.578125 -3.945312 11.578125 -7.15625 C 11.578125 -10.375 10.378906 -11.984375 7.984375 -11.984375 C 6.773438 -11.984375 5.863281 -11.578125 5.25 -10.765625 C 4.644531 -9.953125 4.34375 -8.75 4.34375 -7.15625 Z M 4.34375 -7.15625" transform="translate(505.552 105.622)"/></g></g></g><g fill="#D9D9D9"><g><g><path d="M 9.296875 0 L 8.890625 -1.390625 L 8.734375 -1.390625 C 8.421875 -0.890625 7.96875 -0.5 7.375 -0.21875 C 6.789062 0.0625 6.125 0.203125 5.375 0.203125 C 4.09375 0.203125 3.125 -0.140625 2.46875 -0.828125 C 1.820312 -1.515625 1.5 -2.503906 1.5 -3.796875 L 1.5 -10.921875 L 4.484375 -10.921875 L 4.484375 -4.546875 C 4.484375 -3.753906 4.625 -3.160156 4.90625 -2.765625 C 5.1875 -2.367188 5.628906 -2.171875 6.234375 -2.171875 C 7.066406 -2.171875 7.671875 -2.445312 8.046875 -3 C 8.421875 -3.5625 8.609375 -4.488281 8.609375 -5.78125 L 8.609375 -10.921875 L 11.578125 -10.921875 L 11.578125 0 Z M 9.296875 0" transform="translate(521.464 105.622)"/></g></g></g><g fill="#D9D9D9"><g><g><path d="M 1.4375 -13.734375 C 1.4375 -14.710938 1.976562 -15.203125 3.0625 -15.203125 C 4.132812 -15.203125 4.671875 -14.710938 4.671875 -13.734375 C 4.671875 -13.273438 4.535156 -12.914062 4.265625 -12.65625 C 4.003906 -12.40625 3.601562 -12.28125 3.0625 -12.28125 C 1.976562 -12.28125 1.4375 -12.765625 1.4375 -13.734375 Z M 4.546875 0 L 1.5625 0 L 1.5625 -10.921875 L 4.546875 -10.921875 Z M 4.546875 0" transform="translate(534.603 105.622)"/></g></g></g><g fill="#D9D9D9"><g><g><path d="M 9.15625 0 L 0.53125 0 L 0.53125 -1.765625 L 5.59375 -8.640625 L 0.84375 -8.640625 L 0.84375 -10.921875 L 8.984375 -10.921875 L 8.984375 -8.984375 L 4.0625 -2.28125 L 9.15625 -2.28125 Z M 9.15625 0" transform="translate(540.704 105.622)"/></g></g></g><g fill="#D9D9D9"><g><g><path d="M 9.15625 0 L 0.53125 0 L 0.53125 -1.765625 L 5.59375 -8.640625 L 0.84375 -8.640625 L 0.84375 -10.921875 L 8.984375 -10.921875 L 8.984375 -8.984375 L 4.0625 -2.28125 L 9.15625 -2.28125 Z M 9.15625 0" transform="translate(550.456 105.622)"/></g></g></g><g fill="#D9D9D9"><g><g><path d="M 1.4375 -13.734375 C 1.4375 -14.710938 1.976562 -15.203125 3.0625 -15.203125 C 4.132812 -15.203125 4.671875 -14.710938 4.671875 -13.734375 C 4.671875 -13.273438 4.535156 -12.914062 4.265625 -12.65625 C 4.003906 -12.40625 3.601562 -12.28125 3.0625 -12.28125 C 1.976562 -12.28125 1.4375 -12.765625 1.4375 -13.734375 Z M 4.546875 0 L 1.5625 0 L 1.5625 -10.921875 L 4.546875 -10.921875 Z M 4.546875 0" transform="translate(560.208 105.622)"/></g></g></g><g fill="#D9D9D9"><g><g><path d="M 11.640625 0 L 8.65625 0 L 8.65625 -6.375 C 8.65625 -7.164062 8.515625 -7.753906 8.234375 -8.140625 C 7.960938 -8.535156 7.519531 -8.734375 6.90625 -8.734375 C 6.070312 -8.734375 5.46875 -8.457031 5.09375 -7.90625 C 4.726562 -7.351562 4.546875 -6.429688 4.546875 -5.140625 L 4.546875 0 L 1.5625 0 L 1.5625 -10.921875 L 3.84375 -10.921875 L 4.234375 -9.515625 L 4.40625 -9.515625 C 4.738281 -10.046875 5.195312 -10.445312 5.78125 -10.71875 C 6.363281 -10.988281 7.023438 -11.125 7.765625 -11.125 C 9.035156 -11.125 10 -10.78125 10.65625 -10.09375 C 11.3125 -9.40625 11.640625 -8.414062 11.640625 -7.125 Z M 11.640625 0" transform="translate(566.31 105.622)"/></g></g></g><g fill="#D9D9D9"><g><g><path d="M 11.0625 -10.921875 L 11.0625 -9.40625 L 9.359375 -8.96875 C 9.671875 -8.476562 9.828125 -7.929688 9.828125 -7.328125 C 9.828125 -6.148438 9.414062 -5.234375 8.59375 -4.578125 C 7.78125 -3.929688 6.648438 -3.609375 5.203125 -3.609375 L 4.65625 -3.640625 L 4.21875 -3.6875 C 3.914062 -3.445312 3.765625 -3.1875 3.765625 -2.90625 C 3.765625 -2.46875 4.3125 -2.25 5.40625 -2.25 L 7.25 -2.25 C 8.445312 -2.25 9.359375 -1.992188 9.984375 -1.484375 C 10.617188 -0.972656 10.9375 -0.21875 10.9375 0.78125 C 10.9375 2.0625 10.40625 3.050781 9.34375 3.75 C 8.28125 4.457031 6.75 4.8125 4.75 4.8125 C 3.226562 4.8125 2.066406 4.546875 1.265625 4.015625 C 0.460938 3.484375 0.0625 2.738281 0.0625 1.78125 C 0.0625 1.125 0.265625 0.570312 0.671875 0.125 C 1.085938 -0.3125 1.691406 -0.628906 2.484375 -0.828125 C 2.171875 -0.953125 1.898438 -1.160156 1.671875 -1.453125 C 1.453125 -1.753906 1.34375 -2.070312 1.34375 -2.40625 C 1.34375 -2.820312 1.460938 -3.164062 1.703125 -3.4375 C 1.941406 -3.71875 2.289062 -3.992188 2.75 -4.265625 C 2.175781 -4.503906 1.71875 -4.894531 1.375 -5.4375 C 1.039062 -5.988281 0.875 -6.640625 0.875 -7.390625 C 0.875 -8.578125 1.257812 -9.492188 2.03125 -10.140625 C 2.8125 -10.796875 3.921875 -11.125 5.359375 -11.125 C 5.671875 -11.125 6.035156 -11.09375 6.453125 -11.03125 C 6.867188 -10.976562 7.132812 -10.941406 7.25 -10.921875 Z M 2.640625 1.546875 C 2.640625 1.953125 2.832031 2.269531 3.21875 2.5 C 3.613281 2.738281 4.171875 2.859375 4.890625 2.859375 C 5.953125 2.859375 6.785156 2.710938 7.390625 2.421875 C 7.992188 2.128906 8.296875 1.726562 8.296875 1.21875 C 8.296875 0.8125 8.117188 0.53125 7.765625 0.375 C 7.410156 0.21875 6.859375 0.140625 6.109375 0.140625 L 4.5625 0.140625 C 4.007812 0.140625 3.550781 0.265625 3.1875 0.515625 C 2.820312 0.773438 2.640625 1.117188 2.640625 1.546875 Z M 3.71875 -7.34375 C 3.71875 -6.75 3.851562 -6.28125 4.125 -5.9375 C 4.394531 -5.59375 4.804688 -5.421875 5.359375 -5.421875 C 5.921875 -5.421875 6.332031 -5.59375 6.59375 -5.9375 C 6.851562 -6.28125 6.984375 -6.75 6.984375 -7.34375 C 6.984375 -8.65625 6.441406 -9.3125 5.359375 -9.3125 C 4.265625 -9.3125 3.71875 -8.65625 3.71875 -7.34375 Z M 3.71875 -7.34375" transform="translate(579.449 105.622)"/></g></g></g><g fill="#D9D9D9"><g><g><path d="M 7.3125 0 L 4.28125 0 L 4.28125 -11.765625 L 0.40625 -11.765625 L 0.40625 -14.28125 L 11.1875 -14.28125 L 11.1875 -11.765625 L 7.3125 -11.765625 Z M 7.3125 0" transform="translate(675.232 105.622)"/></g></g></g><g fill="#D9D9D9"><g><g><path d="M 6.078125 -9 C 5.453125 -9 4.957031 -8.796875 4.59375 -8.390625 C 4.238281 -7.992188 4.035156 -7.429688 3.984375 -6.703125 L 8.171875 -6.703125 C 8.148438 -7.429688 7.953125 -7.992188 7.578125 -8.390625 C 7.210938 -8.796875 6.710938 -9 6.078125 -9 Z M 6.5 0.203125 C 4.75 0.203125 3.378906 -0.28125 2.390625 -1.25 C 1.398438 -2.226562 0.90625 -3.601562 0.90625 -5.375 C 0.90625 -7.207031 1.359375 -8.625 2.265625 -9.625 C 3.179688 -10.625 4.445312 -11.125 6.0625 -11.125 C 7.601562 -11.125 8.800781 -10.679688 9.65625 -9.796875 C 10.519531 -8.921875 10.953125 -7.707031 10.953125 -6.15625 L 10.953125 -4.71875 L 3.921875 -4.71875 C 3.953125 -3.875 4.203125 -3.210938 4.671875 -2.734375 C 5.140625 -2.253906 5.796875 -2.015625 6.640625 -2.015625 C 7.296875 -2.015625 7.914062 -2.082031 8.5 -2.21875 C 9.09375 -2.363281 9.707031 -2.582031 10.34375 -2.875 L 10.34375 -0.578125 C 9.820312 -0.316406 9.265625 -0.125 8.671875 0 C 8.078125 0.132812 7.351562 0.203125 6.5 0.203125 Z M 6.5 0.203125" transform="translate(686.81 105.622)"/></g></g></g><g fill="#D9D9D9"><g><g><path d="M 8.5 0 L 7.921875 -1.484375 L 7.84375 -1.484375 C 7.34375 -0.847656 6.828125 -0.40625 6.296875 -0.15625 C 5.765625 0.0820312 5.070312 0.203125 4.21875 0.203125 C 3.164062 0.203125 2.335938 -0.0976562 1.734375 -0.703125 C 1.140625 -1.304688 0.84375 -2.160156 0.84375 -3.265625 C 0.84375 -4.421875 1.242188 -5.273438 2.046875 -5.828125 C 2.859375 -6.378906 4.082031 -6.679688 5.71875 -6.734375 L 7.625 -6.796875 L 7.625 -7.28125 C 7.625 -8.382812 7.054688 -8.9375 5.921875 -8.9375 C 5.046875 -8.9375 4.019531 -8.671875 2.84375 -8.140625 L 1.859375 -10.15625 C 3.109375 -10.8125 4.5 -11.140625 6.03125 -11.140625 C 7.5 -11.140625 8.625 -10.820312 9.40625 -10.1875 C 10.1875 -9.550781 10.578125 -8.582031 10.578125 -7.28125 L 10.578125 0 Z M 7.625 -5.0625 L 6.46875 -5.015625 C 5.601562 -4.992188 4.957031 -4.835938 4.53125 -4.546875 C 4.101562 -4.265625 3.890625 -3.832031 3.890625 -3.25 C 3.890625 -2.40625 4.375 -1.984375 5.34375 -1.984375 C 6.03125 -1.984375 6.582031 -2.179688 7 -2.578125 C 7.414062 -2.972656 7.625 -3.5 7.625 -4.15625 Z M 7.625 -5.0625" transform="translate(698.62 105.622)"/></g></g></g><g fill="#D9D9D9"><g><g><path d="M 11.34375 0 L 8.359375 0 L 8.359375 -6.375 C 8.359375 -7.164062 8.222656 -7.753906 7.953125 -8.140625 C 7.691406 -8.535156 7.28125 -8.734375 6.71875 -8.734375 C 5.957031 -8.734375 5.40625 -8.453125 5.0625 -7.890625 C 4.71875 -7.335938 4.546875 -6.421875 4.546875 -5.140625 L 4.546875 0 L 1.5625 0 L 1.5625 -10.921875 L 3.84375 -10.921875 L 4.234375 -9.515625 L 4.40625 -9.515625 C 4.695312 -10.023438 5.117188 -10.421875 5.671875 -10.703125 C 6.222656 -10.984375 6.859375 -11.125 7.578125 -11.125 C 9.210938 -11.125 10.320312 -10.585938 10.90625 -9.515625 L 11.15625 -9.515625 C 11.457031 -10.023438 11.890625 -10.421875 12.453125 -10.703125 C 13.023438 -10.984375 13.671875 -11.125 14.390625 -11.125 C 15.617188 -11.125 16.550781 -10.804688 17.1875 -10.171875 C 17.820312 -9.535156 18.140625 -8.519531 18.140625 -7.125 L 18.140625 0 L 15.15625 0 L 15.15625 -6.375 C 15.15625 -7.164062 15.019531 -7.753906 14.75 -8.140625 C 14.488281 -8.535156 14.078125 -8.734375 13.515625 -8.734375 C 12.785156 -8.734375 12.238281 -8.472656 11.875 -7.953125 C 11.519531 -7.429688 11.34375 -6.609375 11.34375 -5.484375 Z M 11.34375 0" transform="translate(710.696 105.622)"/></g></g></g><g fill="#D9D9D9"><g><g><path d="M 7.84375 0 L 4.40625 -11.203125 L 4.3125 -11.203125 C 4.4375 -8.921875 4.5 -7.398438 4.5 -6.640625 L 4.5 0 L 1.796875 0 L 1.796875 -14.28125 L 5.921875 -14.28125 L 9.296875 -3.359375 L 9.359375 -3.359375 L 12.9375 -14.28125 L 17.0625 -14.28125 L 17.0625 0 L 14.234375 0 L 14.234375 -6.765625 C 14.234375 -7.078125 14.238281 -7.441406 14.25 -7.859375 C 14.257812 -8.273438 14.304688 -9.382812 14.390625 -11.1875 L 14.296875 -11.1875 L 10.609375 0 Z M 7.84375 0" transform="translate(735.52 105.622)"/></g></g></g><g fill="#D9D9D9"><g><g><path d="M 8.5 0 L 7.921875 -1.484375 L 7.84375 -1.484375 C 7.34375 -0.847656 6.828125 -0.40625 6.296875 -0.15625 C 5.765625 0.0820312 5.070312 0.203125 4.21875 0.203125 C 3.164062 0.203125 2.335938 -0.0976562 1.734375 -0.703125 C 1.140625 -1.304688 0.84375 -2.160156 0.84375 -3.265625 C 0.84375 -4.421875 1.242188 -5.273438 2.046875 -5.828125 C 2.859375 -6.378906 4.082031 -6.679688 5.71875 -6.734375 L 7.625 -6.796875 L 7.625 -7.28125 C 7.625 -8.382812 7.054688 -8.9375 5.921875 -8.9375 C 5.046875 -8.9375 4.019531 -8.671875 2.84375 -8.140625 L 1.859375 -10.15625 C 3.109375 -10.8125 4.5 -11.140625 6.03125 -11.140625 C 7.5 -11.140625 8.625 -10.820312 9.40625 -10.1875 C 10.1875 -9.550781 10.578125 -8.582031 10.578125 -7.28125 L 10.578125 0 Z M 7.625 -5.0625 L 6.46875 -5.015625 C 5.601562 -4.992188 4.957031 -4.835938 4.53125 -4.546875 C 4.101562 -4.265625 3.890625 -3.832031 3.890625 -3.25 C 3.890625 -2.40625 4.375 -1.984375 5.34375 -1.984375 C 6.03125 -1.984375 6.582031 -2.179688 7 -2.578125 C 7.414062 -2.972656 7.625 -3.5 7.625 -4.15625 Z M 7.625 -5.0625" transform="translate(754.37 105.622)"/></g></g></g><g fill="#D9D9D9"><g><g><path d="M 11.640625 0 L 8.65625 0 L 8.65625 -6.375 C 8.65625 -7.164062 8.515625 -7.753906 8.234375 -8.140625 C 7.960938 -8.535156 7.519531 -8.734375 6.90625 -8.734375 C 6.070312 -8.734375 5.46875 -8.457031 5.09375 -7.90625 C 4.726562 -7.351562 4.546875 -6.429688 4.546875 -5.140625 L 4.546875 0 L 1.5625 0 L 1.5625 -10.921875 L 3.84375 -10.921875 L 4.234375 -9.515625 L 4.40625 -9.515625 C 4.738281 -10.046875 5.195312 -10.445312 5.78125 -10.71875 C 6.363281 -10.988281 7.023438 -11.125 7.765625 -11.125 C 9.035156 -11.125 10 -10.78125 10.65625 -10.09375 C 11.3125 -9.40625 11.640625 -8.414062 11.640625 -7.125 Z M 11.640625 0" transform="translate(766.446 105.622)"/></g></g></g><g fill="#D9D9D9"><g><g><path d="M 8.5 0 L 7.921875 -1.484375 L 7.84375 -1.484375 C 7.34375 -0.847656 6.828125 -0.40625 6.296875 -0.15625 C 5.765625 0.0820312 5.070312 0.203125 4.21875 0.203125 C 3.164062 0.203125 2.335938 -0.0976562 1.734375 -0.703125 C 1.140625 -1.304688 0.84375 -2.160156 0.84375 -3.265625 C 0.84375 -4.421875 1.242188 -5.273438 2.046875 -5.828125 C 2.859375 -6.378906 4.082031 -6.679688 5.71875 -6.734375 L 7.625 -6.796875 L 7.625 -7.28125 C 7.625 -8.382812 7.054688 -8.9375 5.921875 -8.9375 C 5.046875 -8.9375 4.019531 -8.671875 2.84375 -8.140625 L 1.859375 -10.15625 C 3.109375 -10.8125 4.5 -11.140625 6.03125 -11.140625 C 7.5 -11.140625 8.625 -10.820312 9.40625 -10.1875 C 10.1875 -9.550781 10.578125 -8.582031 10.578125 -7.28125 L 10.578125 0 Z M 7.625 -5.0625 L 6.46875 -5.015625 C 5.601562 -4.992188 4.957031 -4.835938 4.53125 -4.546875 C 4.101562 -4.265625 3.890625 -3.832031 3.890625 -3.25 C 3.890625 -2.40625 4.375 -1.984375 5.34375 -1.984375 C 6.03125 -1.984375 6.582031 -2.179688 7 -2.578125 C 7.414062 -2.972656 7.625 -3.5 7.625 -4.15625 Z M 7.625 -5.0625" transform="translate(779.585 105.622)"/></g></g></g><g fill="#D9D9D9"><g><g><path d="M 11.0625 -10.921875 L 11.0625 -9.40625 L 9.359375 -8.96875 C 9.671875 -8.476562 9.828125 -7.929688 9.828125 -7.328125 C 9.828125 -6.148438 9.414062 -5.234375 8.59375 -4.578125 C 7.78125 -3.929688 6.648438 -3.609375 5.203125 -3.609375 L 4.65625 -3.640625 L 4.21875 -3.6875 C 3.914062 -3.445312 3.765625 -3.1875 3.765625 -2.90625 C 3.765625 -2.46875 4.3125 -2.25 5.40625 -2.25 L 7.25 -2.25 C 8.445312 -2.25 9.359375 -1.992188 9.984375 -1.484375 C 10.617188 -0.972656 10.9375 -0.21875 10.9375 0.78125 C 10.9375 2.0625 10.40625 3.050781 9.34375 3.75 C 8.28125 4.457031 6.75 4.8125 4.75 4.8125 C 3.226562 4.8125 2.066406 4.546875 1.265625 4.015625 C 0.460938 3.484375 0.0625 2.738281 0.0625 1.78125 C 0.0625 1.125 0.265625 0.570312 0.671875 0.125 C 1.085938 -0.3125 1.691406 -0.628906 2.484375 -0.828125 C 2.171875 -0.953125 1.898438 -1.160156 1.671875 -1.453125 C 1.453125 -1.753906 1.34375 -2.070312 1.34375 -2.40625 C 1.34375 -2.820312 1.460938 -3.164062 1.703125 -3.4375 C 1.941406 -3.71875 2.289062 -3.992188 2.75 -4.265625 C 2.175781 -4.503906 1.71875 -4.894531 1.375 -5.4375 C 1.039062 -5.988281 0.875 -6.640625 0.875 -7.390625 C 0.875 -8.578125 1.257812 -9.492188 2.03125 -10.140625 C 2.8125 -10.796875 3.921875 -11.125 5.359375 -11.125 C 5.671875 -11.125 6.035156 -11.09375 6.453125 -11.03125 C 6.867188 -10.976562 7.132812 -10.941406 7.25 -10.921875 Z M 2.640625 1.546875 C 2.640625 1.953125 2.832031 2.269531 3.21875 2.5 C 3.613281 2.738281 4.171875 2.859375 4.890625 2.859375 C 5.953125 2.859375 6.785156 2.710938 7.390625 2.421875 C 7.992188 2.128906 8.296875 1.726562 8.296875 1.21875 C 8.296875 0.8125 8.117188 0.53125 7.765625 0.375 C 7.410156 0.21875 6.859375 0.140625 6.109375 0.140625 L 4.5625 0.140625 C 4.007812 0.140625 3.550781 0.265625 3.1875 0.515625 C 2.820312 0.773438 2.640625 1.117188 2.640625 1.546875 Z M 3.71875 -7.34375 C 3.71875 -6.75 3.851562 -6.28125 4.125 -5.9375 C 4.394531 -5.59375 4.804688 -5.421875 5.359375 -5.421875 C 5.921875 -5.421875 6.332031 -5.59375 6.59375 -5.9375 C 6.851562 -6.28125 6.984375 -6.75 6.984375 -7.34375 C 6.984375 -8.65625 6.441406 -9.3125 5.359375 -9.3125 C 4.265625 -9.3125 3.71875 -8.65625 3.71875 -7.34375 Z M 3.71875 -7.34375" transform="translate(791.66 105.622)"/></g></g></g><g fill="#D9D9D9"><g><g><path d="M 6.078125 -9 C 5.453125 -9 4.957031 -8.796875 4.59375 -8.390625 C 4.238281 -7.992188 4.035156 -7.429688 3.984375 -6.703125 L 8.171875 -6.703125 C 8.148438 -7.429688 7.953125 -7.992188 7.578125 -8.390625 C 7.210938 -8.796875 6.710938 -9 6.078125 -9 Z M 6.5 0.203125 C 4.75 0.203125 3.378906 -0.28125 2.390625 -1.25 C 1.398438 -2.226562 0.90625 -3.601562 0.90625 -5.375 C 0.90625 -7.207031 1.359375 -8.625 2.265625 -9.625 C 3.179688 -10.625 4.445312 -11.125 6.0625 -11.125 C 7.601562 -11.125 8.800781 -10.679688 9.65625 -9.796875 C 10.519531 -8.921875 10.953125 -7.707031 10.953125 -6.15625 L 10.953125 -4.71875 L 3.921875 -4.71875 C 3.953125 -3.875 4.203125 -3.210938 4.671875 -2.734375 C 5.140625 -2.253906 5.796875 -2.015625 6.640625 -2.015625 C 7.296875 -2.015625 7.914062 -2.082031 8.5 -2.21875 C 9.09375 -2.363281 9.707031 -2.582031 10.34375 -2.875 L 10.34375 -0.578125 C 9.820312 -0.316406 9.265625 -0.125 8.671875 0 C 8.078125 0.132812 7.351562 0.203125 6.5 0.203125 Z M 6.5 0.203125" transform="translate(802.955 105.622)"/></g></g></g><g fill="#D9D9D9"><g><g><path d="M 11.34375 0 L 8.359375 0 L 8.359375 -6.375 C 8.359375 -7.164062 8.222656 -7.753906 7.953125 -8.140625 C 7.691406 -8.535156 7.28125 -8.734375 6.71875 -8.734375 C 5.957031 -8.734375 5.40625 -8.453125 5.0625 -7.890625 C 4.71875 -7.335938 4.546875 -6.421875 4.546875 -5.140625 L 4.546875 0 L 1.5625 0 L 1.5625 -10.921875 L 3.84375 -10.921875 L 4.234375 -9.515625 L 4.40625 -9.515625 C 4.695312 -10.023438 5.117188 -10.421875 5.671875 -10.703125 C 6.222656 -10.984375 6.859375 -11.125 7.578125 -11.125 C 9.210938 -11.125 10.320312 -10.585938 10.90625 -9.515625 L 11.15625 -9.515625 C 11.457031 -10.023438 11.890625 -10.421875 12.453125 -10.703125 C 13.023438 -10.984375 13.671875 -11.125 14.390625 -11.125 C 15.617188 -11.125 16.550781 -10.804688 17.1875 -10.171875 C 17.820312 -9.535156 18.140625 -8.519531 18.140625 -7.125 L 18.140625 0 L 15.15625 0 L 15.15625 -6.375 C 15.15625 -7.164062 15.019531 -7.753906 14.75 -8.140625 C 14.488281 -8.535156 14.078125 -8.734375 13.515625 -8.734375 C 12.785156 -8.734375 12.238281 -8.472656 11.875 -7.953125 C 11.519531 -7.429688 11.34375 -6.609375 11.34375 -5.484375 Z M 11.34375 0" transform="translate(814.767 105.622)"/></g></g></g><g fill="#D9D9D9"><g><g><path d="M 6.078125 -9 C 5.453125 -9 4.957031 -8.796875 4.59375 -8.390625 C 4.238281 -7.992188 4.035156 -7.429688 3.984375 -6.703125 L 8.171875 -6.703125 C 8.148438 -7.429688 7.953125 -7.992188 7.578125 -8.390625 C 7.210938 -8.796875 6.710938 -9 6.078125 -9 Z M 6.5 0.203125 C 4.75 0.203125 3.378906 -0.28125 2.390625 -1.25 C 1.398438 -2.226562 0.90625 -3.601562 0.90625 -5.375 C 0.90625 -7.207031 1.359375 -8.625 2.265625 -9.625 C 3.179688 -10.625 4.445312 -11.125 6.0625 -11.125 C 7.601562 -11.125 8.800781 -10.679688 9.65625 -9.796875 C 10.519531 -8.921875 10.953125 -7.707031 10.953125 -6.15625 L 10.953125 -4.71875 L 3.921875 -4.71875 C 3.953125 -3.875 4.203125 -3.210938 4.671875 -2.734375 C 5.140625 -2.253906 5.796875 -2.015625 6.640625 -2.015625 C 7.296875 -2.015625 7.914062 -2.082031 8.5 -2.21875 C 9.09375 -2.363281 9.707031 -2.582031 10.34375 -2.875 L 10.34375 -0.578125 C 9.820312 -0.316406 9.265625 -0.125 8.671875 0 C 8.078125 0.132812 7.351562 0.203125 6.5 0.203125 Z M 6.5 0.203125" transform="translate(834.398 105.622)"/></g></g></g><g fill="#D9D9D9"><g><g><path d="M 11.640625 0 L 8.65625 0 L 8.65625 -6.375 C 8.65625 -7.164062 8.515625 -7.753906 8.234375 -8.140625 C 7.960938 -8.535156 7.519531 -8.734375 6.90625 -8.734375 C 6.070312 -8.734375 5.46875 -8.457031 5.09375 -7.90625 C 4.726562 -7.351562 4.546875 -6.429688 4.546875 -5.140625 L 4.546875 0 L 1.5625 0 L 1.5625 -10.921875 L 3.84375 -10.921875 L 4.234375 -9.515625 L 4.40625 -9.515625 C 4.738281 -10.046875 5.195312 -10.445312 5.78125 -10.71875 C 6.363281 -10.988281 7.023438 -11.125 7.765625 -11.125 C 9.035156 -11.125 10 -10.78125 10.65625 -10.09375 C 11.3125 -9.40625 11.640625 -8.414062 11.640625 -7.125 Z M 11.640625 0" transform="translate(846.21 105.622)"/></g></g></g><g fill="#D9D9D9"><g><g><path d="M 6.15625 -2.171875 C 6.675781 -2.171875 7.300781 -2.285156 8.03125 -2.515625 L 8.03125 -0.296875 C 7.289062 0.0351562 6.378906 0.203125 5.296875 0.203125 C 4.109375 0.203125 3.242188 -0.0976562 2.703125 -0.703125 C 2.160156 -1.304688 1.890625 -2.210938 1.890625 -3.421875 L 1.890625 -8.6875 L 0.453125 -8.6875 L 0.453125 -9.9375 L 2.09375 -10.9375 L 2.953125 -13.25 L 4.859375 -13.25 L 4.859375 -10.921875 L 7.921875 -10.921875 L 7.921875 -8.6875 L 4.859375 -8.6875 L 4.859375 -3.421875 C 4.859375 -2.992188 4.976562 -2.675781 5.21875 -2.46875 C 5.457031 -2.269531 5.769531 -2.171875 6.15625 -2.171875 Z M 6.15625 -2.171875" transform="translate(859.35 105.622)"/></g></g></g><g fill="#D9D9D9"><g><g><path d="M 7.859375 -11.96875 C 6.722656 -11.96875 5.84375 -11.535156 5.21875 -10.671875 C 4.59375 -9.816406 4.28125 -8.625 4.28125 -7.09375 C 4.28125 -3.914062 5.472656 -2.328125 7.859375 -2.328125 C 8.859375 -2.328125 10.070312 -2.578125 11.5 -3.078125 L 11.5 -0.53125 C 10.332031 -0.0390625 9.023438 0.203125 7.578125 0.203125 C 5.503906 0.203125 3.914062 -0.425781 2.8125 -1.6875 C 1.707031 -2.945312 1.15625 -4.757812 1.15625 -7.125 C 1.15625 -8.601562 1.425781 -9.898438 1.96875 -11.015625 C 2.507812 -12.140625 3.285156 -13 4.296875 -13.59375 C 5.316406 -14.1875 6.503906 -14.484375 7.859375 -14.484375 C 9.242188 -14.484375 10.640625 -14.148438 12.046875 -13.484375 L 11.0625 -11.015625 C 10.53125 -11.265625 9.992188 -11.484375 9.453125 -11.671875 C 8.910156 -11.867188 8.378906 -11.96875 7.859375 -11.96875 Z M 7.859375 -11.96875" transform="translate(42.417 254.051)"/></g></g></g><g fill="#D9D9D9"><g><g><path d="M 4.640625 -5.984375 L 0.859375 -5.984375 L 0.859375 -8.109375 L 4.640625 -8.109375 L 4.640625 -11.921875 L 6.78125 -11.921875 L 6.78125 -8.109375 L 10.5625 -8.109375 L 10.5625 -5.984375 L 6.78125 -5.984375 L 6.78125 -2.21875 L 4.640625 -2.21875 Z M 4.640625 -5.984375" transform="translate(55.156 254.051)"/></g></g></g><g fill="#D9D9D9"><g><g><path d="M 4.640625 -5.984375 L 0.859375 -5.984375 L 0.859375 -8.109375 L 4.640625 -8.109375 L 4.640625 -11.921875 L 6.78125 -11.921875 L 6.78125 -8.109375 L 10.5625 -8.109375 L 10.5625 -5.984375 L 6.78125 -5.984375 L 6.78125 -2.21875 L 4.640625 -2.21875 Z M 4.640625 -5.984375" transform="translate(66.568 254.051)"/></g></g></g><g fill="#D9D9D9"><g><g><path d="M 4.828125 -7.5625 L 5.828125 -7.5625 C 6.753906 -7.5625 7.445312 -7.742188 7.90625 -8.109375 C 8.375 -8.472656 8.609375 -9.007812 8.609375 -9.71875 C 8.609375 -10.425781 8.410156 -10.945312 8.015625 -11.28125 C 7.628906 -11.625 7.023438 -11.796875 6.203125 -11.796875 L 4.828125 -11.796875 Z M 11.65625 -9.828125 C 11.65625 -8.285156 11.175781 -7.109375 10.21875 -6.296875 C 9.257812 -5.484375 7.894531 -5.078125 6.125 -5.078125 L 4.828125 -5.078125 L 4.828125 0 L 1.796875 0 L 1.796875 -14.28125 L 6.359375 -14.28125 C 8.085938 -14.28125 9.398438 -13.90625 10.296875 -13.15625 C 11.203125 -12.414062 11.65625 -11.304688 11.65625 -9.828125 Z M 11.65625 -9.828125" transform="translate(184.252 254.051)"/></g></g></g><g fill="#D9D9D9"><g><g><path d="M 0 -10.921875 L 3.265625 -10.921875 L 5.328125 -4.78125 C 5.503906 -4.238281 5.625 -3.601562 5.6875 -2.875 L 5.75 -2.875 C 5.8125 -3.550781 5.945312 -4.1875 6.15625 -4.78125 L 8.1875 -10.921875 L 11.375 -10.921875 L 6.765625 1.390625 C 6.335938 2.535156 5.726562 3.390625 4.9375 3.953125 C 4.15625 4.523438 3.242188 4.8125 2.203125 4.8125 C 1.679688 4.8125 1.175781 4.753906 0.6875 4.640625 L 0.6875 2.28125 C 1.039062 2.363281 1.429688 2.40625 1.859375 2.40625 C 2.378906 2.40625 2.835938 2.242188 3.234375 1.921875 C 3.628906 1.597656 3.9375 1.109375 4.15625 0.453125 L 4.34375 -0.078125 Z M 0 -10.921875" transform="translate(196.806 254.051)"/></g></g></g><g fill="#D9D9D9"><g><g><path d="M 6.15625 -2.171875 C 6.675781 -2.171875 7.300781 -2.285156 8.03125 -2.515625 L 8.03125 -0.296875 C 7.289062 0.0351562 6.378906 0.203125 5.296875 0.203125 C 4.109375 0.203125 3.242188 -0.0976562 2.703125 -0.703125 C 2.160156 -1.304688 1.890625 -2.210938 1.890625 -3.421875 L 1.890625 -8.6875 L 0.453125 -8.6875 L 0.453125 -9.9375 L 2.09375 -10.9375 L 2.953125 -13.25 L 4.859375 -13.25 L 4.859375 -10.921875 L 7.921875 -10.921875 L 7.921875 -8.6875 L 4.859375 -8.6875 L 4.859375 -3.421875 C 4.859375 -2.992188 4.976562 -2.675781 5.21875 -2.46875 C 5.457031 -2.269531 5.769531 -2.171875 6.15625 -2.171875 Z M 6.15625 -2.171875" transform="translate(208.178 254.051)"/></g></g></g><g fill="#D9D9D9"><g><g><path d="M 11.640625 0 L 8.65625 0 L 8.65625 -6.375 C 8.65625 -7.945312 8.070312 -8.734375 6.90625 -8.734375 C 6.070312 -8.734375 5.46875 -8.453125 5.09375 -7.890625 C 4.726562 -7.328125 4.546875 -6.410156 4.546875 -5.140625 L 4.546875 0 L 1.5625 0 L 1.5625 -15.203125 L 4.546875 -15.203125 L 4.546875 -12.09375 C 4.546875 -11.851562 4.519531 -11.289062 4.46875 -10.40625 L 4.40625 -9.515625 L 4.5625 -9.515625 C 5.226562 -10.585938 6.28125 -11.125 7.71875 -11.125 C 9.007812 -11.125 9.984375 -10.773438 10.640625 -10.078125 C 11.304688 -9.390625 11.640625 -8.40625 11.640625 -7.125 Z M 11.640625 0" transform="translate(216.856 254.051)"/></g></g></g><g fill="#D9D9D9"><g><g><path d="M 3.9375 -5.484375 C 3.9375 -4.398438 4.113281 -3.582031 4.46875 -3.03125 C 4.820312 -2.476562 5.398438 -2.203125 6.203125 -2.203125 C 6.992188 -2.203125 7.5625 -2.472656 7.90625 -3.015625 C 8.257812 -3.566406 8.4375 -4.390625 8.4375 -5.484375 C 8.4375 -6.554688 8.257812 -7.363281 7.90625 -7.90625 C 7.5625 -8.445312 6.988281 -8.71875 6.1875 -8.71875 C 5.382812 -8.71875 4.804688 -8.445312 4.453125 -7.90625 C 4.109375 -7.375 3.9375 -6.566406 3.9375 -5.484375 Z M 11.484375 -5.484375 C 11.484375 -3.703125 11.015625 -2.304688 10.078125 -1.296875 C 9.140625 -0.296875 7.832031 0.203125 6.15625 0.203125 C 5.113281 0.203125 4.191406 -0.0234375 3.390625 -0.484375 C 2.585938 -0.953125 1.972656 -1.613281 1.546875 -2.46875 C 1.117188 -3.332031 0.90625 -4.335938 0.90625 -5.484375 C 0.90625 -7.265625 1.367188 -8.648438 2.296875 -9.640625 C 3.222656 -10.628906 4.53125 -11.125 6.21875 -11.125 C 7.269531 -11.125 8.195312 -10.894531 9 -10.4375 C 9.800781 -9.976562 10.414062 -9.320312 10.84375 -8.46875 C 11.269531 -7.625 11.484375 -6.628906 11.484375 -5.484375 Z M 11.484375 -5.484375" transform="translate(229.996 254.051)"/></g></g></g><g fill="#D9D9D9"><g><g><path d="M 11.640625 0 L 8.65625 0 L 8.65625 -6.375 C 8.65625 -7.164062 8.515625 -7.753906 8.234375 -8.140625 C 7.960938 -8.535156 7.519531 -8.734375 6.90625 -8.734375 C 6.070312 -8.734375 5.46875 -8.457031 5.09375 -7.90625 C 4.726562 -7.351562 4.546875 -6.429688 4.546875 -5.140625 L 4.546875 0 L 1.5625 0 L 1.5625 -10.921875 L 3.84375 -10.921875 L 4.234375 -9.515625 L 4.40625 -9.515625 C 4.738281 -10.046875 5.195312 -10.445312 5.78125 -10.71875 C 6.363281 -10.988281 7.023438 -11.125 7.765625 -11.125 C 9.035156 -11.125 10 -10.78125 10.65625 -10.09375 C 11.3125 -9.40625 11.640625 -8.414062 11.640625 -7.125 Z M 11.640625 0" transform="translate(242.374 254.051)"/></g></g></g><g fill="#D9D9D9"><g><g><path d="M 10.015625 0 L 1.796875 0 L 1.796875 -14.28125 L 10.015625 -14.28125 L 10.015625 -11.796875 L 4.828125 -11.796875 L 4.828125 -8.65625 L 9.65625 -8.65625 L 9.65625 -6.1875 L 4.828125 -6.1875 L 4.828125 -2.5 L 10.015625 -2.5 Z M 10.015625 0" transform="translate(340.552 254.051)"/></g></g></g><g fill="#D9D9D9"><g><g><path d="M 9.1875 -3.25 C 9.1875 -2.125 8.796875 -1.265625 8.015625 -0.671875 C 7.234375 -0.0859375 6.066406 0.203125 4.515625 0.203125 C 3.722656 0.203125 3.046875 0.144531 2.484375 0.03125 C 1.929688 -0.0703125 1.410156 -0.226562 0.921875 -0.4375 L 0.921875 -2.90625 C 1.472656 -2.644531 2.09375 -2.425781 2.78125 -2.25 C 3.476562 -2.070312 4.09375 -1.984375 4.625 -1.984375 C 5.695312 -1.984375 6.234375 -2.296875 6.234375 -2.921875 C 6.234375 -3.148438 6.160156 -3.335938 6.015625 -3.484375 C 5.878906 -3.640625 5.632812 -3.804688 5.28125 -3.984375 C 4.925781 -4.171875 4.457031 -4.390625 3.875 -4.640625 C 3.039062 -4.992188 2.425781 -5.316406 2.03125 -5.609375 C 1.632812 -5.910156 1.347656 -6.253906 1.171875 -6.640625 C 0.992188 -7.035156 0.90625 -7.515625 0.90625 -8.078125 C 0.90625 -9.046875 1.28125 -9.796875 2.03125 -10.328125 C 2.78125 -10.859375 3.84375 -11.125 5.21875 -11.125 C 6.539062 -11.125 7.820312 -10.835938 9.0625 -10.265625 L 8.171875 -8.109375 C 7.617188 -8.347656 7.101562 -8.539062 6.625 -8.6875 C 6.15625 -8.84375 5.671875 -8.921875 5.171875 -8.921875 C 4.296875 -8.921875 3.859375 -8.679688 3.859375 -8.203125 C 3.859375 -7.929688 4 -7.695312 4.28125 -7.5 C 4.5625 -7.3125 5.179688 -7.023438 6.140625 -6.640625 C 6.992188 -6.296875 7.617188 -5.972656 8.015625 -5.671875 C 8.410156 -5.367188 8.703125 -5.019531 8.890625 -4.625 C 9.085938 -4.238281 9.1875 -3.78125 9.1875 -3.25 Z M 9.1875 -3.25" transform="translate(351.75 254.051)"/></g></g></g><g fill="#D9D9D9"><g><g><path d="M 7.5625 0.203125 C 6.28125 0.203125 5.273438 -0.265625 4.546875 -1.203125 L 4.390625 -1.203125 C 4.492188 -0.285156 4.546875 0.238281 4.546875 0.375 L 4.546875 4.8125 L 1.5625 4.8125 L 1.5625 -10.921875 L 3.984375 -10.921875 L 4.40625 -9.5 L 4.546875 -9.5 C 5.242188 -10.582031 6.273438 -11.125 7.640625 -11.125 C 8.929688 -11.125 9.941406 -10.625 10.671875 -9.625 C 11.398438 -8.632812 11.765625 -7.253906 11.765625 -5.484375 C 11.765625 -4.316406 11.59375 -3.300781 11.25 -2.4375 C 10.90625 -1.582031 10.414062 -0.925781 9.78125 -0.46875 C 9.15625 -0.0195312 8.414062 0.203125 7.5625 0.203125 Z M 6.6875 -8.734375 C 5.945312 -8.734375 5.40625 -8.507812 5.0625 -8.0625 C 4.726562 -7.613281 4.554688 -6.867188 4.546875 -5.828125 L 4.546875 -5.5 C 4.546875 -4.320312 4.71875 -3.476562 5.0625 -2.96875 C 5.414062 -2.46875 5.96875 -2.21875 6.71875 -2.21875 C 8.050781 -2.21875 8.71875 -3.316406 8.71875 -5.515625 C 8.71875 -6.585938 8.550781 -7.390625 8.21875 -7.921875 C 7.894531 -8.460938 7.382812 -8.734375 6.6875 -8.734375 Z M 6.6875 -8.734375" transform="translate(361.687 254.051)"/></g></g></g><g fill="#D9D9D9"><g><g><path d="M 5.71875 -14.46875 C 7.09375 -14.46875 8.195312 -14.15625 9.03125 -13.53125 C 9.863281 -12.90625 10.28125 -12.066406 10.28125 -11.015625 C 10.28125 -10.285156 10.078125 -9.632812 9.671875 -9.0625 C 9.273438 -8.5 8.625 -7.992188 7.71875 -7.546875 C 8.789062 -6.972656 9.554688 -6.375 10.015625 -5.75 C 10.484375 -5.125 10.71875 -4.441406 10.71875 -3.703125 C 10.71875 -2.523438 10.257812 -1.578125 9.34375 -0.859375 C 8.425781 -0.148438 7.21875 0.203125 5.71875 0.203125 C 4.15625 0.203125 2.925781 -0.128906 2.03125 -0.796875 C 1.144531 -1.460938 0.703125 -2.40625 0.703125 -3.625 C 0.703125 -4.4375 0.914062 -5.15625 1.34375 -5.78125 C 1.78125 -6.414062 2.476562 -6.976562 3.4375 -7.46875 C 2.625 -7.976562 2.035156 -8.523438 1.671875 -9.109375 C 1.316406 -9.691406 1.140625 -10.332031 1.140625 -11.03125 C 1.140625 -12.050781 1.5625 -12.878906 2.40625 -13.515625 C 3.257812 -14.148438 4.363281 -14.46875 5.71875 -14.46875 Z M 3.5 -3.796875 C 3.5 -3.234375 3.691406 -2.796875 4.078125 -2.484375 C 4.472656 -2.171875 5.007812 -2.015625 5.6875 -2.015625 C 6.4375 -2.015625 6.992188 -2.175781 7.359375 -2.5 C 7.734375 -2.820312 7.921875 -3.25 7.921875 -3.78125 C 7.921875 -4.21875 7.734375 -4.625 7.359375 -5 C 6.992188 -5.382812 6.398438 -5.789062 5.578125 -6.21875 C 4.191406 -5.582031 3.5 -4.773438 3.5 -3.796875 Z M 5.703125 -12.25 C 5.191406 -12.25 4.773438 -12.117188 4.453125 -11.859375 C 4.140625 -11.597656 3.984375 -11.242188 3.984375 -10.796875 C 3.984375 -10.410156 4.109375 -10.0625 4.359375 -9.75 C 4.609375 -9.4375 5.0625 -9.117188 5.71875 -8.796875 C 6.363281 -9.097656 6.8125 -9.40625 7.0625 -9.71875 C 7.3125 -10.03125 7.4375 -10.390625 7.4375 -10.796875 C 7.4375 -11.242188 7.273438 -11.597656 6.953125 -11.859375 C 6.628906 -12.117188 6.210938 -12.25 5.703125 -12.25 Z M 5.703125 -12.25" transform="translate(374.338 254.051)"/></g></g></g><g fill="#D9D9D9"><g><g><path d="M 10.78125 0 L 0.796875 0 L 0.796875 -2.09375 L 4.390625 -5.71875 C 5.453125 -6.8125 6.144531 -7.566406 6.46875 -7.984375 C 6.789062 -8.398438 7.023438 -8.785156 7.171875 -9.140625 C 7.316406 -9.503906 7.390625 -9.878906 7.390625 -10.265625 C 7.390625 -10.835938 7.226562 -11.265625 6.90625 -11.546875 C 6.59375 -11.828125 6.171875 -11.96875 5.640625 -11.96875 C 5.085938 -11.96875 4.550781 -11.835938 4.03125 -11.578125 C 3.507812 -11.328125 2.96875 -10.96875 2.40625 -10.5 L 0.765625 -12.4375 C 1.460938 -13.039062 2.039062 -13.460938 2.5 -13.703125 C 2.96875 -13.953125 3.472656 -14.144531 4.015625 -14.28125 C 4.566406 -14.414062 5.179688 -14.484375 5.859375 -14.484375 C 6.753906 -14.484375 7.539062 -14.316406 8.21875 -13.984375 C 8.90625 -13.660156 9.4375 -13.207031 9.8125 -12.625 C 10.1875 -12.039062 10.375 -11.367188 10.375 -10.609375 C 10.375 -9.953125 10.257812 -9.335938 10.03125 -8.765625 C 9.800781 -8.191406 9.441406 -7.597656 8.953125 -6.984375 C 8.472656 -6.378906 7.617188 -5.519531 6.390625 -4.40625 L 4.5625 -2.671875 L 4.5625 -2.546875 L 10.78125 -2.546875 Z M 10.78125 0" transform="translate(385.75 254.051)"/></g></g></g><g fill="#D9D9D9"><g><g><path d="M 0.703125 -6.0625 C 0.703125 -8.882812 1.296875 -10.984375 2.484375 -12.359375 C 3.679688 -13.742188 5.472656 -14.4375 7.859375 -14.4375 C 8.671875 -14.4375 9.3125 -14.390625 9.78125 -14.296875 L 9.78125 -11.890625 C 9.195312 -12.015625 8.625 -12.078125 8.0625 -12.078125 C 7.019531 -12.078125 6.171875 -11.921875 5.515625 -11.609375 C 4.867188 -11.296875 4.378906 -10.832031 4.046875 -10.21875 C 3.722656 -9.613281 3.535156 -8.75 3.484375 -7.625 L 3.609375 -7.625 C 4.253906 -8.726562 5.285156 -9.28125 6.703125 -9.28125 C 7.972656 -9.28125 8.96875 -8.878906 9.6875 -8.078125 C 10.414062 -7.273438 10.78125 -6.164062 10.78125 -4.75 C 10.78125 -3.226562 10.347656 -2.019531 9.484375 -1.125 C 8.628906 -0.238281 7.441406 0.203125 5.921875 0.203125 C 4.867188 0.203125 3.945312 -0.0390625 3.15625 -0.53125 C 2.375 -1.019531 1.769531 -1.734375 1.34375 -2.671875 C 0.914062 -3.609375 0.703125 -4.738281 0.703125 -6.0625 Z M 5.859375 -2.21875 C 6.503906 -2.21875 7 -2.429688 7.34375 -2.859375 C 7.6875 -3.296875 7.859375 -3.914062 7.859375 -4.71875 C 7.859375 -5.414062 7.695312 -5.960938 7.375 -6.359375 C 7.050781 -6.765625 6.566406 -6.96875 5.921875 -6.96875 C 5.304688 -6.96875 4.78125 -6.765625 4.34375 -6.359375 C 3.914062 -5.960938 3.703125 -5.503906 3.703125 -4.984375 C 3.703125 -4.203125 3.90625 -3.546875 4.3125 -3.015625 C 4.71875 -2.484375 5.234375 -2.21875 5.859375 -2.21875 Z M 5.859375 -2.21875" transform="translate(397.161 254.051)"/></g></g></g><g fill="#D9D9D9"><g><g><path d="M 0.703125 -6.0625 C 0.703125 -8.882812 1.296875 -10.984375 2.484375 -12.359375 C 3.679688 -13.742188 5.472656 -14.4375 7.859375 -14.4375 C 8.671875 -14.4375 9.3125 -14.390625 9.78125 -14.296875 L 9.78125 -11.890625 C 9.195312 -12.015625 8.625 -12.078125 8.0625 -12.078125 C 7.019531 -12.078125 6.171875 -11.921875 5.515625 -11.609375 C 4.867188 -11.296875 4.378906 -10.832031 4.046875 -10.21875 C 3.722656 -9.613281 3.535156 -8.75 3.484375 -7.625 L 3.609375 -7.625 C 4.253906 -8.726562 5.285156 -9.28125 6.703125 -9.28125 C 7.972656 -9.28125 8.96875 -8.878906 9.6875 -8.078125 C 10.414062 -7.273438 10.78125 -6.164062 10.78125 -4.75 C 10.78125 -3.226562 10.347656 -2.019531 9.484375 -1.125 C 8.628906 -0.238281 7.441406 0.203125 5.921875 0.203125 C 4.867188 0.203125 3.945312 -0.0390625 3.15625 -0.53125 C 2.375 -1.019531 1.769531 -1.734375 1.34375 -2.671875 C 0.914062 -3.609375 0.703125 -4.738281 0.703125 -6.0625 Z M 5.859375 -2.21875 C 6.503906 -2.21875 7 -2.429688 7.34375 -2.859375 C 7.6875 -3.296875 7.859375 -3.914062 7.859375 -4.71875 C 7.859375 -5.414062 7.695312 -5.960938 7.375 -6.359375 C 7.050781 -6.765625 6.566406 -6.96875 5.921875 -6.96875 C 5.304688 -6.96875 4.78125 -6.765625 4.34375 -6.359375 C 3.914062 -5.960938 3.703125 -5.503906 3.703125 -4.984375 C 3.703125 -4.203125 3.90625 -3.546875 4.3125 -3.015625 C 4.71875 -2.484375 5.234375 -2.21875 5.859375 -2.21875 Z M 5.859375 -2.21875" transform="translate(408.573 254.051)"/></g></g></g><g fill="#D9D9D9"><g><g><path d="M 1.796875 0 L 1.796875 -14.28125 L 4.828125 -14.28125 L 4.828125 0 Z M 1.796875 0" transform="translate(467.617 254.051)"/></g></g></g><g fill="#D9D9D9"><g><g><path d="M 11.640625 0 L 8.65625 0 L 8.65625 -6.375 C 8.65625 -7.164062 8.515625 -7.753906 8.234375 -8.140625 C 7.960938 -8.535156 7.519531 -8.734375 6.90625 -8.734375 C 6.070312 -8.734375 5.46875 -8.457031 5.09375 -7.90625 C 4.726562 -7.351562 4.546875 -6.429688 4.546875 -5.140625 L 4.546875 0 L 1.5625 0 L 1.5625 -10.921875 L 3.84375 -10.921875 L 4.234375 -9.515625 L 4.40625 -9.515625 C 4.738281 -10.046875 5.195312 -10.445312 5.78125 -10.71875 C 6.363281 -10.988281 7.023438 -11.125 7.765625 -11.125 C 9.035156 -11.125 10 -10.78125 10.65625 -10.09375 C 11.3125 -9.40625 11.640625 -8.414062 11.640625 -7.125 Z M 11.640625 0" transform="translate(474.236 254.051)"/></g></g></g><g fill="#D9D9D9"><g><g><path d="M 6.15625 -2.171875 C 6.675781 -2.171875 7.300781 -2.285156 8.03125 -2.515625 L 8.03125 -0.296875 C 7.289062 0.0351562 6.378906 0.203125 5.296875 0.203125 C 4.109375 0.203125 3.242188 -0.0976562 2.703125 -0.703125 C 2.160156 -1.304688 1.890625 -2.210938 1.890625 -3.421875 L 1.890625 -8.6875 L 0.453125 -8.6875 L 0.453125 -9.9375 L 2.09375 -10.9375 L 2.953125 -13.25 L 4.859375 -13.25 L 4.859375 -10.921875 L 7.921875 -10.921875 L 7.921875 -8.6875 L 4.859375 -8.6875 L 4.859375 -3.421875 C 4.859375 -2.992188 4.976562 -2.675781 5.21875 -2.46875 C 5.457031 -2.269531 5.769531 -2.171875 6.15625 -2.171875 Z M 6.15625 -2.171875" transform="translate(487.375 254.051)"/></g></g></g><g fill="#D9D9D9"><g><g><path d="M 6.078125 -9 C 5.453125 -9 4.957031 -8.796875 4.59375 -8.390625 C 4.238281 -7.992188 4.035156 -7.429688 3.984375 -6.703125 L 8.171875 -6.703125 C 8.148438 -7.429688 7.953125 -7.992188 7.578125 -8.390625 C 7.210938 -8.796875 6.710938 -9 6.078125 -9 Z M 6.5 0.203125 C 4.75 0.203125 3.378906 -0.28125 2.390625 -1.25 C 1.398438 -2.226562 0.90625 -3.601562 0.90625 -5.375 C 0.90625 -7.207031 1.359375 -8.625 2.265625 -9.625 C 3.179688 -10.625 4.445312 -11.125 6.0625 -11.125 C 7.601562 -11.125 8.800781 -10.679688 9.65625 -9.796875 C 10.519531 -8.921875 10.953125 -7.707031 10.953125 -6.15625 L 10.953125 -4.71875 L 3.921875 -4.71875 C 3.953125 -3.875 4.203125 -3.210938 4.671875 -2.734375 C 5.140625 -2.253906 5.796875 -2.015625 6.640625 -2.015625 C 7.296875 -2.015625 7.914062 -2.082031 8.5 -2.21875 C 9.09375 -2.363281 9.707031 -2.582031 10.34375 -2.875 L 10.34375 -0.578125 C 9.820312 -0.316406 9.265625 -0.125 8.671875 0 C 8.078125 0.132812 7.351562 0.203125 6.5 0.203125 Z M 6.5 0.203125" transform="translate(496.053 254.051)"/></g></g></g><g fill="#D9D9D9"><g><g><path d="M 7.65625 -11.125 C 8.0625 -11.125 8.394531 -11.09375 8.65625 -11.03125 L 8.4375 -8.25 C 8.195312 -8.3125 7.90625 -8.34375 7.5625 -8.34375 C 6.613281 -8.34375 5.875 -8.097656 5.34375 -7.609375 C 4.8125 -7.117188 4.546875 -6.4375 4.546875 -5.5625 L 4.546875 0 L 1.5625 0 L 1.5625 -10.921875 L 3.8125 -10.921875 L 4.265625 -9.078125 L 4.40625 -9.078125 C 4.738281 -9.691406 5.191406 -10.1875 5.765625 -10.5625 C 6.347656 -10.9375 6.976562 -11.125 7.65625 -11.125 Z M 7.65625 -11.125" transform="translate(507.865 254.051)"/></g></g></g><g fill="#D9D9D9"><g><g><path d="M 11.640625 0 L 8.65625 0 L 8.65625 -6.375 C 8.65625 -7.164062 8.515625 -7.753906 8.234375 -8.140625 C 7.960938 -8.535156 7.519531 -8.734375 6.90625 -8.734375 C 6.070312 -8.734375 5.46875 -8.457031 5.09375 -7.90625 C 4.726562 -7.351562 4.546875 -6.429688 4.546875 -5.140625 L 4.546875 0 L 1.5625 0 L 1.5625 -10.921875 L 3.84375 -10.921875 L 4.234375 -9.515625 L 4.40625 -9.515625 C 4.738281 -10.046875 5.195312 -10.445312 5.78125 -10.71875 C 6.363281 -10.988281 7.023438 -11.125 7.765625 -11.125 C 9.035156 -11.125 10 -10.78125 10.65625 -10.09375 C 11.3125 -9.40625 11.640625 -8.414062 11.640625 -7.125 Z M 11.640625 0" transform="translate(516.943 254.051)"/></g></g></g><g fill="#D9D9D9"><g><g><path d="M 6.078125 -9 C 5.453125 -9 4.957031 -8.796875 4.59375 -8.390625 C 4.238281 -7.992188 4.035156 -7.429688 3.984375 -6.703125 L 8.171875 -6.703125 C 8.148438 -7.429688 7.953125 -7.992188 7.578125 -8.390625 C 7.210938 -8.796875 6.710938 -9 6.078125 -9 Z M 6.5 0.203125 C 4.75 0.203125 3.378906 -0.28125 2.390625 -1.25 C 1.398438 -2.226562 0.90625 -3.601562 0.90625 -5.375 C 0.90625 -7.207031 1.359375 -8.625 2.265625 -9.625 C 3.179688 -10.625 4.445312 -11.125 6.0625 -11.125 C 7.601562 -11.125 8.800781 -10.679688 9.65625 -9.796875 C 10.519531 -8.921875 10.953125 -7.707031 10.953125 -6.15625 L 10.953125 -4.71875 L 3.921875 -4.71875 C 3.953125 -3.875 4.203125 -3.210938 4.671875 -2.734375 C 5.140625 -2.253906 5.796875 -2.015625 6.640625 -2.015625 C 7.296875 -2.015625 7.914062 -2.082031 8.5 -2.21875 C 9.09375 -2.363281 9.707031 -2.582031 10.34375 -2.875 L 10.34375 -0.578125 C 9.820312 -0.316406 9.265625 -0.125 8.671875 0 C 8.078125 0.132812 7.351562 0.203125 6.5 0.203125 Z M 6.5 0.203125" transform="translate(530.083 254.051)"/></g></g></g><g fill="#D9D9D9"><g><g><path d="M 6.15625 -2.171875 C 6.675781 -2.171875 7.300781 -2.285156 8.03125 -2.515625 L 8.03125 -0.296875 C 7.289062 0.0351562 6.378906 0.203125 5.296875 0.203125 C 4.109375 0.203125 3.242188 -0.0976562 2.703125 -0.703125 C 2.160156 -1.304688 1.890625 -2.210938 1.890625 -3.421875 L 1.890625 -8.6875 L 0.453125 -8.6875 L 0.453125 -9.9375 L 2.09375 -10.9375 L 2.953125 -13.25 L 4.859375 -13.25 L 4.859375 -10.921875 L 7.921875 -10.921875 L 7.921875 -8.6875 L 4.859375 -8.6875 L 4.859375 -3.421875 C 4.859375 -2.992188 4.976562 -2.675781 5.21875 -2.46875 C 5.457031 -2.269531 5.769531 -2.171875 6.15625 -2.171875 Z M 6.15625 -2.171875" transform="translate(541.895 254.051)"/></g></g></g><g fill="#D9D9D9"><g><g><path d="M 3.9375 -5.484375 C 3.9375 -4.398438 4.113281 -3.582031 4.46875 -3.03125 C 4.820312 -2.476562 5.398438 -2.203125 6.203125 -2.203125 C 6.992188 -2.203125 7.5625 -2.472656 7.90625 -3.015625 C 8.257812 -3.566406 8.4375 -4.390625 8.4375 -5.484375 C 8.4375 -6.554688 8.257812 -7.363281 7.90625 -7.90625 C 7.5625 -8.445312 6.988281 -8.71875 6.1875 -8.71875 C 5.382812 -8.71875 4.804688 -8.445312 4.453125 -7.90625 C 4.109375 -7.375 3.9375 -6.566406 3.9375 -5.484375 Z M 11.484375 -5.484375 C 11.484375 -3.703125 11.015625 -2.304688 10.078125 -1.296875 C 9.140625 -0.296875 7.832031 0.203125 6.15625 0.203125 C 5.113281 0.203125 4.191406 -0.0234375 3.390625 -0.484375 C 2.585938 -0.953125 1.972656 -1.613281 1.546875 -2.46875 C 1.117188 -3.332031 0.90625 -4.335938 0.90625 -5.484375 C 0.90625 -7.265625 1.367188 -8.648438 2.296875 -9.640625 C 3.222656 -10.628906 4.53125 -11.125 6.21875 -11.125 C 7.269531 -11.125 8.195312 -10.894531 9 -10.4375 C 9.800781 -9.976562 10.414062 -9.320312 10.84375 -8.46875 C 11.269531 -7.625 11.484375 -6.628906 11.484375 -5.484375 Z M 11.484375 -5.484375" transform="translate(555.766 254.051)"/></g></g></g><g fill="#D9D9D9"><g><g><path d="M 7.59375 -8.6875 L 5.015625 -8.6875 L 5.015625 0 L 2.046875 0 L 2.046875 -8.6875 L 0.40625 -8.6875 L 0.40625 -10.125 L 2.046875 -10.921875 L 2.046875 -11.71875 C 2.046875 -12.957031 2.347656 -13.863281 2.953125 -14.4375 C 3.566406 -15.007812 4.550781 -15.296875 5.90625 -15.296875 C 6.925781 -15.296875 7.835938 -15.144531 8.640625 -14.84375 L 7.875 -12.65625 C 7.28125 -12.84375 6.726562 -12.9375 6.21875 -12.9375 C 5.800781 -12.9375 5.492188 -12.8125 5.296875 -12.5625 C 5.109375 -12.3125 5.015625 -11.992188 5.015625 -11.609375 L 5.015625 -10.921875 L 7.59375 -10.921875 Z M 7.59375 -8.6875" transform="translate(568.144 254.051)"/></g></g></g><g fill="#D9D9D9"><g><g><path d="M 7.3125 0 L 4.28125 0 L 4.28125 -11.765625 L 0.40625 -11.765625 L 0.40625 -14.28125 L 11.1875 -14.28125 L 11.1875 -11.765625 L 7.3125 -11.765625 Z M 7.3125 0" transform="translate(581.079 254.051)"/></g></g></g><g fill="#D9D9D9"><g><g><path d="M 11.640625 0 L 8.65625 0 L 8.65625 -6.375 C 8.65625 -7.945312 8.070312 -8.734375 6.90625 -8.734375 C 6.070312 -8.734375 5.46875 -8.453125 5.09375 -7.890625 C 4.726562 -7.328125 4.546875 -6.410156 4.546875 -5.140625 L 4.546875 0 L 1.5625 0 L 1.5625 -15.203125 L 4.546875 -15.203125 L 4.546875 -12.09375 C 4.546875 -11.851562 4.519531 -11.289062 4.46875 -10.40625 L 4.40625 -9.515625 L 4.5625 -9.515625 C 5.226562 -10.585938 6.28125 -11.125 7.71875 -11.125 C 9.007812 -11.125 9.984375 -10.773438 10.640625 -10.078125 C 11.304688 -9.390625 11.640625 -8.40625 11.640625 -7.125 Z M 11.640625 0" transform="translate(592.656 254.051)"/></g></g></g><g fill="#D9D9D9"><g><g><path d="M 1.4375 -13.734375 C 1.4375 -14.710938 1.976562 -15.203125 3.0625 -15.203125 C 4.132812 -15.203125 4.671875 -14.710938 4.671875 -13.734375 C 4.671875 -13.273438 4.535156 -12.914062 4.265625 -12.65625 C 4.003906 -12.40625 3.601562 -12.28125 3.0625 -12.28125 C 1.976562 -12.28125 1.4375 -12.765625 1.4375 -13.734375 Z M 4.546875 0 L 1.5625 0 L 1.5625 -10.921875 L 4.546875 -10.921875 Z M 4.546875 0" transform="translate(605.795 254.051)"/></g></g></g><g fill="#D9D9D9"><g><g><path d="M 11.640625 0 L 8.65625 0 L 8.65625 -6.375 C 8.65625 -7.164062 8.515625 -7.753906 8.234375 -8.140625 C 7.960938 -8.535156 7.519531 -8.734375 6.90625 -8.734375 C 6.070312 -8.734375 5.46875 -8.457031 5.09375 -7.90625 C 4.726562 -7.351562 4.546875 -6.429688 4.546875 -5.140625 L 4.546875 0 L 1.5625 0 L 1.5625 -10.921875 L 3.84375 -10.921875 L 4.234375 -9.515625 L 4.40625 -9.515625 C 4.738281 -10.046875 5.195312 -10.445312 5.78125 -10.71875 C 6.363281 -10.988281 7.023438 -11.125 7.765625 -11.125 C 9.035156 -11.125 10 -10.78125 10.65625 -10.09375 C 11.3125 -9.40625 11.640625 -8.414062 11.640625 -7.125 Z M 11.640625 0" transform="translate(611.897 254.051)"/></g></g></g><g fill="#D9D9D9"><g><g><path d="M 11.0625 -10.921875 L 11.0625 -9.40625 L 9.359375 -8.96875 C 9.671875 -8.476562 9.828125 -7.929688 9.828125 -7.328125 C 9.828125 -6.148438 9.414062 -5.234375 8.59375 -4.578125 C 7.78125 -3.929688 6.648438 -3.609375 5.203125 -3.609375 L 4.65625 -3.640625 L 4.21875 -3.6875 C 3.914062 -3.445312 3.765625 -3.1875 3.765625 -2.90625 C 3.765625 -2.46875 4.3125 -2.25 5.40625 -2.25 L 7.25 -2.25 C 8.445312 -2.25 9.359375 -1.992188 9.984375 -1.484375 C 10.617188 -0.972656 10.9375 -0.21875 10.9375 0.78125 C 10.9375 2.0625 10.40625 3.050781 9.34375 3.75 C 8.28125 4.457031 6.75 4.8125 4.75 4.8125 C 3.226562 4.8125 2.066406 4.546875 1.265625 4.015625 C 0.460938 3.484375 0.0625 2.738281 0.0625 1.78125 C 0.0625 1.125 0.265625 0.570312 0.671875 0.125 C 1.085938 -0.3125 1.691406 -0.628906 2.484375 -0.828125 C 2.171875 -0.953125 1.898438 -1.160156 1.671875 -1.453125 C 1.453125 -1.753906 1.34375 -2.070312 1.34375 -2.40625 C 1.34375 -2.820312 1.460938 -3.164062 1.703125 -3.4375 C 1.941406 -3.71875 2.289062 -3.992188 2.75 -4.265625 C 2.175781 -4.503906 1.71875 -4.894531 1.375 -5.4375 C 1.039062 -5.988281 0.875 -6.640625 0.875 -7.390625 C 0.875 -8.578125 1.257812 -9.492188 2.03125 -10.140625 C 2.8125 -10.796875 3.921875 -11.125 5.359375 -11.125 C 5.671875 -11.125 6.035156 -11.09375 6.453125 -11.03125 C 6.867188 -10.976562 7.132812 -10.941406 7.25 -10.921875 Z M 2.640625 1.546875 C 2.640625 1.953125 2.832031 2.269531 3.21875 2.5 C 3.613281 2.738281 4.171875 2.859375 4.890625 2.859375 C 5.953125 2.859375 6.785156 2.710938 7.390625 2.421875 C 7.992188 2.128906 8.296875 1.726562 8.296875 1.21875 C 8.296875 0.8125 8.117188 0.53125 7.765625 0.375 C 7.410156 0.21875 6.859375 0.140625 6.109375 0.140625 L 4.5625 0.140625 C 4.007812 0.140625 3.550781 0.265625 3.1875 0.515625 C 2.820312 0.773438 2.640625 1.117188 2.640625 1.546875 Z M 3.71875 -7.34375 C 3.71875 -6.75 3.851562 -6.28125 4.125 -5.9375 C 4.394531 -5.59375 4.804688 -5.421875 5.359375 -5.421875 C 5.921875 -5.421875 6.332031 -5.59375 6.59375 -5.9375 C 6.851562 -6.28125 6.984375 -6.75 6.984375 -7.34375 C 6.984375 -8.65625 6.441406 -9.3125 5.359375 -9.3125 C 4.265625 -9.3125 3.71875 -8.65625 3.71875 -7.34375 Z M 3.71875 -7.34375" transform="translate(625.036 254.051)"/></g></g></g><g fill="#D9D9D9"><g><g><path d="M 9.1875 -3.25 C 9.1875 -2.125 8.796875 -1.265625 8.015625 -0.671875 C 7.234375 -0.0859375 6.066406 0.203125 4.515625 0.203125 C 3.722656 0.203125 3.046875 0.144531 2.484375 0.03125 C 1.929688 -0.0703125 1.410156 -0.226562 0.921875 -0.4375 L 0.921875 -2.90625 C 1.472656 -2.644531 2.09375 -2.425781 2.78125 -2.25 C 3.476562 -2.070312 4.09375 -1.984375 4.625 -1.984375 C 5.695312 -1.984375 6.234375 -2.296875 6.234375 -2.921875 C 6.234375 -3.148438 6.160156 -3.335938 6.015625 -3.484375 C 5.878906 -3.640625 5.632812 -3.804688 5.28125 -3.984375 C 4.925781 -4.171875 4.457031 -4.390625 3.875 -4.640625 C 3.039062 -4.992188 2.425781 -5.316406 2.03125 -5.609375 C 1.632812 -5.910156 1.347656 -6.253906 1.171875 -6.640625 C 0.992188 -7.035156 0.90625 -7.515625 0.90625 -8.078125 C 0.90625 -9.046875 1.28125 -9.796875 2.03125 -10.328125 C 2.78125 -10.859375 3.84375 -11.125 5.21875 -11.125 C 6.539062 -11.125 7.820312 -10.835938 9.0625 -10.265625 L 8.171875 -8.109375 C 7.617188 -8.347656 7.101562 -8.539062 6.625 -8.6875 C 6.15625 -8.84375 5.671875 -8.921875 5.171875 -8.921875 C 4.296875 -8.921875 3.859375 -8.679688 3.859375 -8.203125 C 3.859375 -7.929688 4 -7.695312 4.28125 -7.5 C 4.5625 -7.3125 5.179688 -7.023438 6.140625 -6.640625 C 6.992188 -6.296875 7.617188 -5.972656 8.015625 -5.671875 C 8.410156 -5.367188 8.703125 -5.019531 8.890625 -4.625 C 9.085938 -4.238281 9.1875 -3.78125 9.1875 -3.25 Z M 9.1875 -3.25" transform="translate(636.33 254.051)"/></g></g></g><g fill="#D9D9D9"><g><g><path d="M 4.828125 -7.9375 L 5.796875 -7.9375 C 6.753906 -7.9375 7.460938 -8.09375 7.921875 -8.40625 C 8.378906 -8.726562 8.609375 -9.234375 8.609375 -9.921875 C 8.609375 -10.597656 8.375 -11.078125 7.90625 -11.359375 C 7.4375 -11.648438 6.71875 -11.796875 5.75 -11.796875 L 4.828125 -11.796875 Z M 4.828125 -5.484375 L 4.828125 0 L 1.796875 0 L 1.796875 -14.28125 L 5.953125 -14.28125 C 7.898438 -14.28125 9.335938 -13.925781 10.265625 -13.21875 C 11.191406 -12.507812 11.65625 -11.4375 11.65625 -10 C 11.65625 -9.15625 11.425781 -8.40625 10.96875 -7.75 C 10.507812 -7.101562 9.851562 -6.59375 9 -6.21875 C 11.15625 -3.007812 12.554688 -0.9375 13.203125 0 L 9.84375 0 L 6.4375 -5.484375 Z M 4.828125 -5.484375" transform="translate(716.87 254.051)"/></g></g></g><g fill="#D9D9D9"><g><g><path d="M 8.5 0 L 7.921875 -1.484375 L 7.84375 -1.484375 C 7.34375 -0.847656 6.828125 -0.40625 6.296875 -0.15625 C 5.765625 0.0820312 5.070312 0.203125 4.21875 0.203125 C 3.164062 0.203125 2.335938 -0.0976562 1.734375 -0.703125 C 1.140625 -1.304688 0.84375 -2.160156 0.84375 -3.265625 C 0.84375 -4.421875 1.242188 -5.273438 2.046875 -5.828125 C 2.859375 -6.378906 4.082031 -6.679688 5.71875 -6.734375 L 7.625 -6.796875 L 7.625 -7.28125 C 7.625 -8.382812 7.054688 -8.9375 5.921875 -8.9375 C 5.046875 -8.9375 4.019531 -8.671875 2.84375 -8.140625 L 1.859375 -10.15625 C 3.109375 -10.8125 4.5 -11.140625 6.03125 -11.140625 C 7.5 -11.140625 8.625 -10.820312 9.40625 -10.1875 C 10.1875 -9.550781 10.578125 -8.582031 10.578125 -7.28125 L 10.578125 0 Z M 7.625 -5.0625 L 6.46875 -5.015625 C 5.601562 -4.992188 4.957031 -4.835938 4.53125 -4.546875 C 4.101562 -4.265625 3.890625 -3.832031 3.890625 -3.25 C 3.890625 -2.40625 4.375 -1.984375 5.34375 -1.984375 C 6.03125 -1.984375 6.582031 -2.179688 7 -2.578125 C 7.414062 -2.972656 7.625 -3.5 7.625 -4.15625 Z M 7.625 -5.0625" transform="translate(730.068 254.051)"/></g></g></g><g fill="#D9D9D9"><g><g><path d="M 9.1875 -3.25 C 9.1875 -2.125 8.796875 -1.265625 8.015625 -0.671875 C 7.234375 -0.0859375 6.066406 0.203125 4.515625 0.203125 C 3.722656 0.203125 3.046875 0.144531 2.484375 0.03125 C 1.929688 -0.0703125 1.410156 -0.226562 0.921875 -0.4375 L 0.921875 -2.90625 C 1.472656 -2.644531 2.09375 -2.425781 2.78125 -2.25 C 3.476562 -2.070312 4.09375 -1.984375 4.625 -1.984375 C 5.695312 -1.984375 6.234375 -2.296875 6.234375 -2.921875 C 6.234375 -3.148438 6.160156 -3.335938 6.015625 -3.484375 C 5.878906 -3.640625 5.632812 -3.804688 5.28125 -3.984375 C 4.925781 -4.171875 4.457031 -4.390625 3.875 -4.640625 C 3.039062 -4.992188 2.425781 -5.316406 2.03125 -5.609375 C 1.632812 -5.910156 1.347656 -6.253906 1.171875 -6.640625 C 0.992188 -7.035156 0.90625 -7.515625 0.90625 -8.078125 C 0.90625 -9.046875 1.28125 -9.796875 2.03125 -10.328125 C 2.78125 -10.859375 3.84375 -11.125 5.21875 -11.125 C 6.539062 -11.125 7.820312 -10.835938 9.0625 -10.265625 L 8.171875 -8.109375 C 7.617188 -8.347656 7.101562 -8.539062 6.625 -8.6875 C 6.15625 -8.84375 5.671875 -8.921875 5.171875 -8.921875 C 4.296875 -8.921875 3.859375 -8.679688 3.859375 -8.203125 C 3.859375 -7.929688 4 -7.695312 4.28125 -7.5 C 4.5625 -7.3125 5.179688 -7.023438 6.140625 -6.640625 C 6.992188 -6.296875 7.617188 -5.972656 8.015625 -5.671875 C 8.410156 -5.367188 8.703125 -5.019531 8.890625 -4.625 C 9.085938 -4.238281 9.1875 -3.78125 9.1875 -3.25 Z M 9.1875 -3.25" transform="translate(742.143 254.051)"/></g></g></g><g fill="#D9D9D9"><g><g><path d="M 7.5625 0.203125 C 6.28125 0.203125 5.273438 -0.265625 4.546875 -1.203125 L 4.390625 -1.203125 C 4.492188 -0.285156 4.546875 0.238281 4.546875 0.375 L 4.546875 4.8125 L 1.5625 4.8125 L 1.5625 -10.921875 L 3.984375 -10.921875 L 4.40625 -9.5 L 4.546875 -9.5 C 5.242188 -10.582031 6.273438 -11.125 7.640625 -11.125 C 8.929688 -11.125 9.941406 -10.625 10.671875 -9.625 C 11.398438 -8.632812 11.765625 -7.253906 11.765625 -5.484375 C 11.765625 -4.316406 11.59375 -3.300781 11.25 -2.4375 C 10.90625 -1.582031 10.414062 -0.925781 9.78125 -0.46875 C 9.15625 -0.0195312 8.414062 0.203125 7.5625 0.203125 Z M 6.6875 -8.734375 C 5.945312 -8.734375 5.40625 -8.507812 5.0625 -8.0625 C 4.726562 -7.613281 4.554688 -6.867188 4.546875 -5.828125 L 4.546875 -5.5 C 4.546875 -4.320312 4.71875 -3.476562 5.0625 -2.96875 C 5.414062 -2.46875 5.96875 -2.21875 6.71875 -2.21875 C 8.050781 -2.21875 8.71875 -3.316406 8.71875 -5.515625 C 8.71875 -6.585938 8.550781 -7.390625 8.21875 -7.921875 C 7.894531 -8.460938 7.382812 -8.734375 6.6875 -8.734375 Z M 6.6875 -8.734375" transform="translate(752.08 254.051)"/></g></g></g><g fill="#D9D9D9"><g><g><path d="M 7.640625 -11.125 C 8.929688 -11.125 9.941406 -10.617188 10.671875 -9.609375 C 11.398438 -8.609375 11.765625 -7.234375 11.765625 -5.484375 C 11.765625 -3.679688 11.382812 -2.28125 10.625 -1.28125 C 9.875 -0.289062 8.851562 0.203125 7.5625 0.203125 C 6.28125 0.203125 5.273438 -0.265625 4.546875 -1.203125 L 4.34375 -1.203125 L 3.84375 0 L 1.5625 0 L 1.5625 -15.203125 L 4.546875 -15.203125 L 4.546875 -11.65625 C 4.546875 -11.207031 4.503906 -10.488281 4.421875 -9.5 L 4.546875 -9.5 C 5.242188 -10.582031 6.273438 -11.125 7.640625 -11.125 Z M 6.6875 -8.734375 C 5.945312 -8.734375 5.40625 -8.507812 5.0625 -8.0625 C 4.726562 -7.613281 4.554688 -6.867188 4.546875 -5.828125 L 4.546875 -5.5 C 4.546875 -4.320312 4.71875 -3.476562 5.0625 -2.96875 C 5.414062 -2.46875 5.96875 -2.21875 6.71875 -2.21875 C 7.332031 -2.21875 7.816406 -2.5 8.171875 -3.0625 C 8.535156 -3.625 8.71875 -4.441406 8.71875 -5.515625 C 8.71875 -6.585938 8.535156 -7.390625 8.171875 -7.921875 C 7.804688 -8.460938 7.3125 -8.734375 6.6875 -8.734375 Z M 6.6875 -8.734375" transform="translate(764.732 254.051)"/></g></g></g><g fill="#D9D9D9"><g><g><path d="M 6.078125 -9 C 5.453125 -9 4.957031 -8.796875 4.59375 -8.390625 C 4.238281 -7.992188 4.035156 -7.429688 3.984375 -6.703125 L 8.171875 -6.703125 C 8.148438 -7.429688 7.953125 -7.992188 7.578125 -8.390625 C 7.210938 -8.796875 6.710938 -9 6.078125 -9 Z M 6.5 0.203125 C 4.75 0.203125 3.378906 -0.28125 2.390625 -1.25 C 1.398438 -2.226562 0.90625 -3.601562 0.90625 -5.375 C 0.90625 -7.207031 1.359375 -8.625 2.265625 -9.625 C 3.179688 -10.625 4.445312 -11.125 6.0625 -11.125 C 7.601562 -11.125 8.800781 -10.679688 9.65625 -9.796875 C 10.519531 -8.921875 10.953125 -7.707031 10.953125 -6.15625 L 10.953125 -4.71875 L 3.921875 -4.71875 C 3.953125 -3.875 4.203125 -3.210938 4.671875 -2.734375 C 5.140625 -2.253906 5.796875 -2.015625 6.640625 -2.015625 C 7.296875 -2.015625 7.914062 -2.082031 8.5 -2.21875 C 9.09375 -2.363281 9.707031 -2.582031 10.34375 -2.875 L 10.34375 -0.578125 C 9.820312 -0.316406 9.265625 -0.125 8.671875 0 C 8.078125 0.132812 7.351562 0.203125 6.5 0.203125 Z M 6.5 0.203125" transform="translate(777.383 254.051)"/></g></g></g><g fill="#D9D9D9"><g><g><path d="M 7.65625 -11.125 C 8.0625 -11.125 8.394531 -11.09375 8.65625 -11.03125 L 8.4375 -8.25 C 8.195312 -8.3125 7.90625 -8.34375 7.5625 -8.34375 C 6.613281 -8.34375 5.875 -8.097656 5.34375 -7.609375 C 4.8125 -7.117188 4.546875 -6.4375 4.546875 -5.5625 L 4.546875 0 L 1.5625 0 L 1.5625 -10.921875 L 3.8125 -10.921875 L 4.265625 -9.078125 L 4.40625 -9.078125 C 4.738281 -9.691406 5.191406 -10.1875 5.765625 -10.5625 C 6.347656 -10.9375 6.976562 -11.125 7.65625 -11.125 Z M 7.65625 -11.125" transform="translate(789.195 254.051)"/></g></g></g><g fill="#D9D9D9"><g><g><path d="M 7.65625 -11.125 C 8.0625 -11.125 8.394531 -11.09375 8.65625 -11.03125 L 8.4375 -8.25 C 8.195312 -8.3125 7.90625 -8.34375 7.5625 -8.34375 C 6.613281 -8.34375 5.875 -8.097656 5.34375 -7.609375 C 4.8125 -7.117188 4.546875 -6.4375 4.546875 -5.5625 L 4.546875 0 L 1.5625 0 L 1.5625 -10.921875 L 3.8125 -10.921875 L 4.265625 -9.078125 L 4.40625 -9.078125 C 4.738281 -9.691406 5.191406 -10.1875 5.765625 -10.5625 C 6.347656 -10.9375 6.976562 -11.125 7.65625 -11.125 Z M 7.65625 -11.125" transform="translate(798.273 254.051)"/></g></g></g><g fill="#D9D9D9"><g><g><path d="M 0 -10.921875 L 3.265625 -10.921875 L 5.328125 -4.78125 C 5.503906 -4.238281 5.625 -3.601562 5.6875 -2.875 L 5.75 -2.875 C 5.8125 -3.550781 5.945312 -4.1875 6.15625 -4.78125 L 8.1875 -10.921875 L 11.375 -10.921875 L 6.765625 1.390625 C 6.335938 2.535156 5.726562 3.390625 4.9375 3.953125 C 4.15625 4.523438 3.242188 4.8125 2.203125 4.8125 C 1.679688 4.8125 1.175781 4.753906 0.6875 4.640625 L 0.6875 2.28125 C 1.039062 2.363281 1.429688 2.40625 1.859375 2.40625 C 2.378906 2.40625 2.835938 2.242188 3.234375 1.921875 C 3.628906 1.597656 3.9375 1.109375 4.15625 0.453125 L 4.34375 -0.078125 Z M 0 -10.921875" transform="translate(807.352 254.051)"/></g></g></g><g fill="#D9D9D9"><g><g><path d="M 4.828125 -7.5625 L 5.828125 -7.5625 C 6.753906 -7.5625 7.445312 -7.742188 7.90625 -8.109375 C 8.375 -8.472656 8.609375 -9.007812 8.609375 -9.71875 C 8.609375 -10.425781 8.410156 -10.945312 8.015625 -11.28125 C 7.628906 -11.625 7.023438 -11.796875 6.203125 -11.796875 L 4.828125 -11.796875 Z M 11.65625 -9.828125 C 11.65625 -8.285156 11.175781 -7.109375 10.21875 -6.296875 C 9.257812 -5.484375 7.894531 -5.078125 6.125 -5.078125 L 4.828125 -5.078125 L 4.828125 0 L 1.796875 0 L 1.796875 -14.28125 L 6.359375 -14.28125 C 8.085938 -14.28125 9.398438 -13.90625 10.296875 -13.15625 C 11.203125 -12.414062 11.65625 -11.304688 11.65625 -9.828125 Z M 11.65625 -9.828125" transform="translate(823.918 254.051)"/></g></g></g><g fill="#D9D9D9"><g><g><path d="M 1.4375 -13.734375 C 1.4375 -14.710938 1.976562 -15.203125 3.0625 -15.203125 C 4.132812 -15.203125 4.671875 -14.710938 4.671875 -13.734375 C 4.671875 -13.273438 4.535156 -12.914062 4.265625 -12.65625 C 4.003906 -12.40625 3.601562 -12.28125 3.0625 -12.28125 C 1.976562 -12.28125 1.4375 -12.765625 1.4375 -13.734375 Z M 4.546875 0 L 1.5625 0 L 1.5625 -10.921875 L 4.546875 -10.921875 Z M 4.546875 0" transform="translate(836.471 254.051)"/></g></g></g></svg>